<svg width="300" height="300" viewBox="0 0 79.375 79.375" xmlns="http://www.w3.org/2000/svg" xmlns:xlink="http://www.w3.org/1999/xlink" id="svg8" overflow="hidden"><defs id="defs2"><filter id="filter99" color-interpolation-filters="sRGB" x="-10%" y="-10%" width="120%" height="120%" filterUnits="objectBoundingBox" primitiveUnits="userSpaceOnUse"><feGaussianBlur result="blur" stdDeviation="2 2"/></filter><filter id="filter116" color-interpolation-filters="sRGB" x="-10%" y="-10%" width="120%" height="120%" filterUnits="objectBoundingBox" primitiveUnits="userSpaceOnUse"><feGaussianBlur result="fbSourceGraphic" stdDeviation="2 2"/><feColorMatrix in="fbSourceGraphic" result="fbSourceGraphicAlpha" type="matrix" values="0 0 0 -1 0 0 0 0 -1 0 0 0 0 -1 0 0 0 0 1 0 "/><feGaussianBlur in="fbSourceGraphic" result="blur" stdDeviation="2 2"/></filter><filter id="filter116-0" color-interpolation-filters="sRGB" x="-10%" y="-10%" width="120%" height="120%" filterUnits="objectBoundingBox" primitiveUnits="userSpaceOnUse"><feGaussianBlur result="fbSourceGraphic" stdDeviation="2 2"/><feColorMatrix in="fbSourceGraphic" result="fbSourceGraphicAlpha" type="matrix" values="0 0 0 -1 0 0 0 0 -1 0 0 0 0 -1 0 0 0 0 1 0 "/><feGaussianBlur in="fbSourceGraphic" result="blur" stdDeviation="2 2"/></filter><filter id="filter156" color-interpolation-filters="sRGB" x="-10%" y="-10%" width="120%" height="120%" filterUnits="objectBoundingBox" primitiveUnits="userSpaceOnUse"><feGaussianBlur result="blur" stdDeviation="2 2"/></filter><filter id="filter163" color-interpolation-filters="sRGB" x="-10%" y="-10%" width="120%" height="120%" filterUnits="objectBoundingBox" primitiveUnits="userSpaceOnUse"><feGaussianBlur result="blur" stdDeviation="2 2"/></filter></defs><g id="layer1" transform="matrix(1 0 0 1 0 -217.625)"><circle cx="40.045" cy="256.881" r="35" id="path22" stroke-width="0.272714" fill="#B3B3B3"/><path d="M38.3587 286.801C37.0652 286.702 35.9723 286.572 34.9433 286.397 23.1565 284.391 13.6844 275.573 10.8374 263.956 10.5322 262.723 10.2416 261.02 10.0962 259.739 9.95088 258.357 9.97137 254.947 10.1359 253.554 10.9643 246.587 13.8827 240.499 18.7413 235.636 23.6827 230.69 29.6968 227.804 36.826 226.959 38.3825 226.775 41.5581 226.775 43.1743 226.959 52.3203 228.004 60.1886 232.834 65.1706 240.461 67.7474 244.407 69.3054 248.783 69.8606 253.634 70.0205 255.076 70.0495 258.237 69.9059 259.619 69.1793 266.602 66.2972 272.826 61.504 277.754 56.6643 282.729 50.3509 285.821 43.3353 286.649 42.3325 286.768 39.1787 286.864 38.3532 286.801Z" id="path24-2" stroke-width="0.0803411" fill="#4D4D4D"/></g><g id="layer3" opacity="0.155"><path d="M38.1594 66.0712C36.9737 65.9804 35.9718 65.8617 35.0286 65.7011 24.224 63.8622 15.5413 55.7793 12.9316 45.1302 12.6518 43.9997 12.3854 42.4392 12.2521 41.2646 12.1189 39.998 12.1377 36.8722 12.2885 35.5951 13.0479 29.2089 15.7231 23.628 20.1768 19.1702 24.7064 14.6361 30.2193 11.9909 36.7544 11.2164 38.1813 11.0473 41.0922 11.0474 42.5737 11.2166 50.9576 12.1742 58.1701 16.6012 62.737 23.5933 65.099 27.2102 66.5272 31.2216 67.0361 35.6687 67.1827 36.99 67.2093 39.8873 67.0777 41.1542 66.4116 47.5552 63.7697 53.2608 59.3759 57.7786 54.9395 62.3391 49.1522 65.1729 42.7213 65.9324 41.802 66.0415 38.9111 66.1292 38.1543 66.0712Z" id="path24-2-5-9" stroke-width="0.073646" fill="#1A1A1A" filter="url(#filter99)"/></g><g id="layer2"><path d="M38.6148 64.1642C37.5404 64.0818 36.6267 63.9737 35.7689 63.8277 25.9467 62.156 18.0537 54.8079 15.6813 45.127 15.4294 44.0992 15.1821 42.6806 15.0687 41.6128 14.9464 40.4613 14.9646 37.6197 15.1018 36.4586 15.7876 30.653 18.2241 25.5795 22.2725 21.5269 26.3901 17.405 31.402 15.0003 37.3425 14.2962 38.6395 14.1425 41.2858 14.1426 42.6326 14.2964 50.2544 15.1669 56.8107 19.1915 60.9623 25.548 63.1098 28.8361 64.4081 32.4828 64.8705 36.5256 65.0079 37.7268 65.0279 40.3606 64.9084 41.5124 64.3045 47.3315 61.9014 52.5184 57.9066 56.6255 53.874 60.7714 48.6123 63.3475 42.7665 64.0381 41.9268 64.1372 39.3026 64.217 38.6148 64.1642Z" id="path24-22" stroke-width="0.0669498" fill="#B3B3B3"/></g><g id="layer4" opacity="0.597"><path d="M14.78 39.0195C14.78 39.0195 15.2477 15.2593 40.037 14.1368" id="path112-1" stroke-width="0.264583" fill="#F2F2F2" filter="url(#filter116-0)" opacity="0.575"/></g><g id="layer6" opacity="0.475"><path d="M40.037 74.2818C40.037 74.2818 71.4375 74.9171 75.1417 39.2445" id="path159" stroke-width="0.264583" fill="#333333" filter="url(#filter163)"/></g><g id="layer5" opacity="0.304"><path d="M6.66179 40.4689C6.66179 40.4689 6.56699 7.97126 41.804 5.39157" id="path152" stroke-width="0.264583" fill="#F2F2F2" filter="url(#filter156)"/></g><g id="layer7"></g><g id="layer8"><g id="g295" transform="matrix(0.812077 0.58355 -0.58355 0.812077 23.6181 -21.0758)"><path d="M32.8458 6.06763 32.4014 6.09102C32.4014 6.09102 31.8051 7.26032 30.7176 5.76361" id="path195-4" stroke-width="0.264583" fill="#333333"/><path d="M32.8458 6.06763 32.8458 6.06763 33.0095 5.787 32.2845 5.68176C31.3023 4.45399 30.7176 5.76361 30.7176 5.76361L32.4014 6.09102" id="path197-6" stroke-width="0.264583" fill="#333333"/><path d="M32.6587 7.8376 32.2143 7.86098C32.2143 7.86098 31.618 9.03029 30.5305 7.53358" id="path195-7-6" stroke-width="0.264583" fill="#333333"/><path d="M32.6587 7.8376 32.6587 7.8376 32.8224 7.55696 32.0974 7.45173C31.1152 6.22396 30.5305 7.53358 30.5305 7.53358L32.2143 7.86098" id="path197-0-7" stroke-width="0.264583" fill="#333333"/><path d="M32.1909 9.90727 31.7466 9.93066C31.7466 9.93066 31.1503 11.1 30.0628 9.60325" id="path195-0-5" stroke-width="0.264583" fill="#333333"/><path d="M32.1909 9.90727 32.1909 9.90727 32.3546 9.62663 31.6297 9.52139C30.6475 8.29363 30.0628 9.60324 30.0628 9.60324L31.7466 9.93065" id="path197-9-4" stroke-width="0.264583" fill="#333333"/><path d="M31.5127 12.0237 31.0684 12.0471C31.0684 12.0471 30.4721 13.2164 29.3846 11.7197" id="path195-1-4" stroke-width="0.264583" fill="#333333"/><path d="M31.5127 12.0237 31.5127 12.0237 31.6765 11.7431 30.9515 11.6378C29.9693 10.4101 29.3846 11.7197 29.3846 11.7197L31.0684 12.0471" id="path197-08-6" stroke-width="0.264583" fill="#333333"/><path d="M32.1192 37.3821C32.1192 37.3821 22.925 43.7321 20.1468 49.8175 17.3687 55.9029 16.6411 60.93 18.4932 64.8326 20.3453 68.7352 25.7406 74.6883 35.313 74.093 44.8854 73.4977 51.5661 67.9415 52.426 59.2102 53.2859 50.479 40.4349 37.5805 37.8739 37.2498 35.313 36.9191 32.1192 37.3821 32.1192 37.3821Z" id="path189" stroke-width="0.264583" fill="#333333"/><path d="M32.1192 37.3821 33.0122 16.4139C33.0122 16.4139 32.4334 15.0248 30.9782 15.0413 30.7136 13.4373 30.7136 13.4373 30.7136 13.4373 30.7136 13.4373 32.8468 8.57557 32.7807 3.58156 32.7807 3.58156 33.9098 3.4855 34.6114 2.66698L36.5524 2.66698C36.5524 2.66698 36.8097 3.46211 38.3064 3.62581 38.3064 3.62581 38.1661 11.0158 40.1539 13.4012L40.0837 15.0382C40.0837 15.0382 37.2774 15.085 37.6984 18.055L38.2596 37.8397 32.1559 38.3074Z" id="path191" stroke-width="0.264583" fill="#333333"/><path d="M38.0024 6.11809 38.4467 6.14148C38.4467 6.14148 39.0431 7.31078 40.1305 5.81407" id="path195" stroke-width="0.264583" fill="#333333"/><path d="M38.0024 6.11809 38.0024 6.11809 37.8387 5.83746 38.5636 5.73222C39.5459 4.50445 40.1305 5.81407 40.1305 5.81407L38.4467 6.14148" id="path197" stroke-width="0.264583" fill="#333333"/><path d="M38.1895 7.88806 38.6338 7.91144C38.6338 7.91144 39.2302 9.08075 40.3176 7.58404" id="path195-7" stroke-width="0.264583" fill="#333333"/><path d="M38.1895 7.88806 38.1895 7.88806 38.0258 7.60743 38.7507 7.50219C39.733 6.27442 40.3176 7.58404 40.3176 7.58404L38.6338 7.91144" id="path197-0" stroke-width="0.264583" fill="#333333"/><path d="M38.6572 9.95773 39.1015 9.98112C39.1015 9.98112 39.6979 11.1504 40.7853 9.65371" id="path195-0" stroke-width="0.264583" fill="#333333"/><path d="M38.6572 9.95773 38.6572 9.95773 38.4935 9.67709 39.2185 9.57186C40.2007 8.34409 40.7853 9.65371 40.7853 9.65371L39.1015 9.98111" id="path197-9" stroke-width="0.264583" fill="#333333"/><path d="M39.2652 12.0508 39.7096 12.0742C39.7096 12.0742 40.3059 13.2435 41.3934 11.7468" id="path195-1" stroke-width="0.264583" fill="#333333"/><path d="M39.2652 12.0508 39.2652 12.0508 39.1015 11.7701 39.8265 11.6649C40.8087 10.4371 41.3934 11.7468 41.3934 11.7468L39.7096 12.0742" id="path197-08" stroke-width="0.264583" fill="#333333"/></g></g><g id="layer9"><g id="text304" stroke-width="0.264583" font-family="Script MT Bold,bold" font-weight="400" font-size="10.5833"><path d="M24.5441 42.678C25.8957 42.678 26.881 42.1475 27.5 41.0864 28.119 40.0127 28.4284 38.8442 28.4284 37.581 28.4284 35.8378 27.8474 34.4483 26.6852 33.4125 25.5357 32.364 23.982 31.8398 22.024 31.8398 19.3965 31.8398 17.0344 32.604 14.9374 34.1325 12.8405 35.6483 11.7921 37.3284 11.7921 39.1727 11.7921 40.2716 12.3858 41.0738 13.5732 41.5791 13.8764 41.7054 14.0279 41.8254 14.0279 41.9391L14.0279 42.5265C14.0279 42.8044 13.5227 43.1517 12.5121 43.5686 11.5142 43.9855 10.8573 44.1939 10.5415 44.1939 10.0489 44.1939 9.54989 43.796 9.04461 43.0002 8.53933 42.1917 8.28669 41.358 8.28669 40.499 8.28669 38.9958 8.89934 37.4231 10.1246 35.781 11.3626 34.1388 13.0995 32.8188 15.3354 31.8208 17.5839 30.8229 20.1608 30.3239 23.0662 30.3239 26.1736 30.3239 28.6874 30.9745 30.6075 32.2756 32.5402 33.5767 33.5065 35.2441 33.5065 37.2779 33.5065 40.3095 31.3591 42.3812 27.0642 43.4928 30.4369 44.5413 32.1233 46.6066 32.1233 49.6888 32.1233 51.9373 31.277 53.87 29.5843 55.4869 27.9042 57.0912 25.8894 57.8933 23.5399 57.8933 22.504 57.8933 21.6387 57.6849 20.944 57.268 20.2492 56.8512 19.9018 56.3459 19.9018 55.7522 19.9018 55.3606 20.1229 54.83 20.565 54.1605 21.0071 53.4911 21.4177 53.1563 21.7966 53.1563 22.3145 53.1563 22.624 53.7626 22.7251 54.9753 22.8009 55.9353 23.0977 56.4154 23.6156 56.4154 24.462 56.4154 25.2073 55.4743 25.8515 53.5921 26.5084 51.7099 26.8368 49.8151 26.8368 47.9077 26.8368 45.596 26.0094 44.3139 24.3546 44.0612ZM25.1694 35.3452C24.4367 36.002 23.8809 36.7536 23.502 37.6 23.1356 38.4337 22.8072 40.0758 22.5167 42.5265 22.2388 44.9771 21.8851 47.0361 21.4556 48.7035 21.0261 50.3583 20.2745 51.9057 19.2008 53.3458 18.1397 54.7732 16.788 55.8974 15.1459 56.7185 13.5163 57.527 11.7605 57.9312 9.87832 57.9312 8.19827 57.9312 6.9098 57.5775 6.01293 56.8701 5.12869 56.1627 4.68657 55.1585 4.68657 53.8574 4.68657 53.39 4.72446 52.9984 4.80025 52.6826 5.39396 52.1394 6.10135 51.6657 6.92243 51.2615 7.74351 50.8446 8.29301 50.6362 8.57091 50.6362 9.02566 50.6362 9.25304 50.9836 9.25304 51.6784 9.25304 51.792 9.20251 52.19 9.10146 52.8721 9.0004 53.5416 8.94987 53.9458 8.94987 54.0848 8.94987 55.6385 9.61937 56.4154 10.9584 56.4154 12.31 56.4154 13.4848 55.5374 14.4827 53.7816 15.4806 52.0131 16.1943 49.3793 16.6238 45.8803 17.0659 42.3812 17.6723 39.9685 18.4428 38.6421 19.226 37.3031 20.2113 36.2799 21.3987 35.5725 22.5861 34.8525 23.5083 34.4925 24.1651 34.4925 24.4936 34.4925 24.8283 34.7767 25.1694 35.3452Z" id="path884" fill="#FFFFFF" font-size="38.8056"/></g><g id="text308" stroke-width="0.264583" font-family="Script MT Bold,bold" font-weight="400" font-size="10.5833"><path d="M46.064 54.4532C44.9615 55.5005 44.1726 56.1826 43.6972 56.4996 43.2218 56.8165 42.767 56.975 42.3329 56.975 41.2443 56.975 40.7309 56.0138 40.793 54.0914 40.1039 55.0767 39.4666 55.8036 38.8809 56.2722 38.3022 56.7407 37.7027 56.975 37.0826 56.975 36.4763 56.975 35.9595 56.6925 35.5323 56.1275 35.112 55.5556 34.9018 54.8562 34.9018 54.0294 34.9018 52.9959 35.1843 52.0106 35.7493 51.0735 36.3212 50.1365 37.0516 49.3785 37.9404 48.7998 38.8293 48.221 39.6147 47.9316 40.2969 47.9316 41.1581 47.9316 41.761 48.3278 42.1055 49.1202L44.2139 47.9523 44.7927 47.9523 43.8832 50.9805C43.4147 52.5032 43.1804 53.5471 43.1804 54.1121 43.1804 54.7047 43.3906 55.0009 43.8109 55.0009 44.0796 55.0009 44.3759 54.8597 44.6997 54.5772 45.0235 54.2878 45.4783 53.8503 46.064 53.2646ZM38.4985 55.0216C39.1875 55.0216 39.8352 54.4359 40.4416 53.2646 41.0548 52.0864 41.3614 51.0012 41.3614 50.009 41.3614 49.6231 41.2753 49.3234 41.103 49.1098 40.9308 48.8893 40.6999 48.7791 40.4106 48.7791 39.7215 48.7791 39.067 49.3648 38.4468 50.5361 37.8336 51.7074 37.527 52.7857 37.527 53.771 37.527 54.1431 37.6166 54.4463 37.7957 54.6805 37.9818 54.9079 38.216 55.0216 38.4985 55.0216Z" id="path887" font-size="21.1667"/><path d="M53.7948 54.4532C52.0653 56.1482 50.7321 56.9957 49.795 56.9957 49.3747 56.9957 49.0198 56.82 48.7305 56.4686 48.4411 56.1103 48.2964 55.6693 48.2964 55.1456 48.2964 54.1741 48.8166 52.8719 49.857 51.2389 49.3471 51.5007 48.789 51.6833 48.1827 51.7867 47.7348 52.6135 47.032 53.5023 46.0743 54.4532L45.8366 54.4532 45.8366 53.523C46.374 52.9649 46.8598 52.3654 47.2939 51.7247 46.7013 51.4628 46.405 51.0735 46.405 50.5568 46.405 50.0262 46.5842 49.4612 46.9425 48.8618 47.3076 48.2554 47.8072 47.9523 48.4411 47.9523 48.9785 47.9523 49.2472 48.2279 49.2472 48.7791 49.2472 49.2132 49.0922 49.8333 48.7821 50.6395 49.9259 50.5154 50.925 49.6404 51.7794 48.0143L52.7199 47.9729 51.7587 50.6188C51.3591 51.735 51.1007 52.4964 50.9836 52.9029 50.8664 53.3025 50.8078 53.6574 50.8078 53.9674 50.8078 54.2568 50.8733 54.4876 51.0042 54.6599 51.142 54.8321 51.3246 54.9183 51.552 54.9183 51.8 54.9183 52.0378 54.8356 52.2651 54.6702 52.4925 54.498 53.0024 54.0294 53.7948 53.2646Z" id="path889" font-size="21.1667"/><path d="M64.8328 54.4532C63.8406 55.4385 63.0827 56.1068 62.5591 56.4582 62.0423 56.8027 61.5841 56.975 61.1845 56.975 60.6953 56.975 60.306 56.7373 60.0166 56.2618 59.7341 55.7864 59.5894 55.0905 59.5825 54.1741 59.0175 55.0905 58.4008 55.7864 57.7325 56.2618 57.071 56.7373 56.4716 56.975 55.9342 56.975 55.3485 56.975 54.8317 56.6994 54.3839 56.1482 53.936 55.5901 53.7121 54.9389 53.7121 54.1948 53.7121 52.6583 54.2702 51.2355 55.3864 49.9263 56.5095 48.6103 57.7153 47.9523 59.0037 47.9523 59.362 47.9523 59.6411 48.004 59.8409 48.1073 60.0476 48.2107 60.2715 48.3864 60.5127 48.6344L61.9906 42.4539C63.1964 42.1714 64.0095 42.0302 64.4298 42.0302 64.5676 42.0302 64.6365 42.0853 64.6365 42.1955 64.6365 42.2713 64.4642 42.9845 64.1197 44.3349 62.7417 49.7368 62.0526 52.9959 62.0526 54.1121 62.0526 54.3739 62.1078 54.5841 62.218 54.7426 62.3282 54.901 62.4729 54.9803 62.6521 54.9803 63.0931 54.9803 63.82 54.4084 64.8328 53.2646ZM57.3604 55.0009C58.0357 55.0009 58.6661 54.4291 59.2518 53.2853 59.8374 52.1415 60.1303 51.0701 60.1303 50.071 60.1303 49.6645 60.0373 49.3407 59.8512 49.0995 59.6721 48.8583 59.4344 48.7378 59.1381 48.7378 58.4973 48.7378 57.8772 49.3372 57.2777 50.5361 56.6783 51.7281 56.3786 52.8064 56.3786 53.771 56.3786 54.15 56.4647 54.4497 56.637 54.6702 56.8161 54.8907 57.0573 55.0009 57.3604 55.0009Z" id="path891" font-size="21.1667"/><path d="M69.432 42.0922C69.4527 43.0981 69.3562 43.9422 69.1426 44.6243 68.9359 45.3064 68.4674 46.1918 67.737 47.2805L67.0859 47.3838C67.4993 46.2401 67.706 45.2479 67.706 44.4073 67.706 43.8698 67.6337 43.3014 67.489 42.702Z" id="path893" font-size="21.1667"/><path d="M73.1011 48.3967C73.5765 48.2727 74.0554 48.1728 74.5377 48.097 75.02 48.0143 75.3094 47.9729 75.4058 47.9729 75.4747 47.9729 75.5092 48.0005 75.5092 48.0556 75.5092 48.159 75.4816 48.2658 75.4265 48.376 75.3163 48.693 75.2611 48.9961 75.2611 49.2855 75.2611 49.6438 75.4678 50.133 75.8813 50.7531 76.2947 51.3733 76.5014 51.9486 76.5014 52.4791 76.5014 53.5333 75.9949 54.5496 74.9821 55.528 73.9761 56.5064 72.9323 56.9957 71.8505 56.9957 71.382 56.9957 70.9548 56.8716 70.5689 56.6236 70.1831 56.3755 69.9901 56.1103 69.9901 55.8278 69.9901 55.6624 70.1796 55.3489 70.5586 54.8873 70.9444 54.4256 71.22 54.1948 71.3854 54.1948 71.6059 54.1948 71.8023 54.4773 71.9745 55.0423 72.1468 55.6073 72.4431 55.8898 72.8633 55.8898 73.2837 55.8898 73.6764 55.6968 74.0416 55.311 74.4136 54.9183 74.5997 54.498 74.5997 54.0501 74.5997 53.616 74.3654 53.0372 73.8969 52.3138 73.4283 51.5903 73.1183 50.984 72.9667 50.4948 72.1674 51.7832 71.1546 53.1027 69.9281 54.4532L69.6904 54.4532 69.6904 53.523C71.3785 51.7247 72.5154 50.0159 73.1011 48.3967Z" id="path895" font-size="21.1667"/></g><g id="text312" stroke-width="0.264583" font-family="Script MT Bold,bold" font-weight="400" font-size="10.5833"><path d="M38.1826 69.4777C36.9424 71.8066 35.5919 72.9711 34.1312 72.9711 33.3664 72.9711 32.7531 72.692 32.2915 72.1339 31.8298 71.5689 31.599 70.8248 31.599 69.9015 31.599 68.8266 31.9814 67.1936 32.7462 65.0026 33.5179 62.8115 33.9038 61.2612 33.9038 60.3517 33.9038 59.9452 33.7867 59.6075 33.5524 59.3388 33.325 59.0701 33.0391 58.9358 32.6946 58.9358 32.164 58.9358 31.6369 59.2596 31.1133 59.9073 30.5896 60.5549 30.3278 61.2164 30.3278 61.8916 30.3278 62.4084 30.562 62.9458 31.0306 63.5039 31.2235 63.7382 31.32 63.9001 31.32 63.9897 31.32 64.0931 31.1718 64.3239 30.8755 64.6822 30.5793 65.0405 30.3243 65.2196 30.1107 65.2196 29.8834 65.2196 29.625 65.0542 29.3356 64.7235 29.0462 64.3928 28.9015 63.9001 28.9015 63.2456 28.9015 61.9158 29.3666 60.7065 30.2968 59.6179 31.2338 58.5292 32.2674 57.9849 33.3974 57.9849 34.2449 57.9849 34.9614 58.3363 35.5471 59.0391 36.1328 59.7419 36.4256 60.617 36.4256 61.6643 36.4256 62.7667 36.0708 64.3273 35.3611 66.3462 34.6583 68.3581 34.3069 69.7051 34.3069 70.3873 34.3069 70.7111 34.3895 70.9695 34.5549 71.1624 34.7203 71.3484 34.9408 71.4415 35.2164 71.4415 35.8158 71.4415 36.4118 70.9522 37.0044 69.9738 37.5969 68.9954 38.1378 67.5933 38.627 65.7674L39.5985 62.1294C39.9775 60.6962 40.4012 59.4456 40.8698 58.3776 40.918 58.2605 41.2384 58.1709 41.831 58.1089 42.4304 58.04 42.8645 58.0056 43.1332 58.0056 43.4019 58.0056 43.5363 58.0607 43.5363 58.1709L41.6449 65.385C41.1006 67.5003 40.8284 69.0471 40.8284 70.0255 40.8284 70.4527 40.918 70.7938 41.0971 71.0487 41.2763 71.2968 41.5174 71.4208 41.8206 71.4208 42.2685 71.4208 42.8783 71.0556 43.65 70.3252 44.4286 69.588 45.0831 68.6509 45.6137 67.514 46.1442 66.3703 46.4095 65.2024 46.4095 64.0104 46.4095 62.7357 46.0994 61.4679 45.4793 60.207 45.3071 59.8418 45.2209 59.6144 45.2209 59.5249 45.2209 59.2286 45.5034 58.9013 46.0684 58.543 46.6403 58.1847 47.0503 58.0056 47.2983 58.0056 47.5326 58.0056 47.7669 58.3191 48.0011 58.9461 48.2423 59.5662 48.3629 60.2173 48.3629 60.8995 48.3629 62.7116 47.9391 64.5685 47.0916 66.4702 46.2441 68.365 45.1899 69.9222 43.929 71.1417 42.6681 72.3613 41.5278 72.9711 40.508 72.9711 39.7846 72.9711 39.2092 72.6817 38.782 72.1029 38.3617 71.5172 38.1619 70.6422 38.1826 69.4777Z" id="path898" font-size="21.1667"/><path d="M59.4009 70.4493C58.2985 71.4966 57.5096 72.1787 57.0342 72.4957 56.5587 72.8126 56.104 72.9711 55.6699 72.9711 54.5813 72.9711 54.0679 72.0099 54.1299 70.0875 53.4409 71.0728 52.8036 71.7997 52.2179 72.2683 51.6391 72.7368 51.0397 72.9711 50.4196 72.9711 49.8132 72.9711 49.2965 72.6886 48.8693 72.1236 48.449 71.5517 48.2388 70.8523 48.2388 70.0255 48.2388 68.992 48.5213 68.0067 49.0863 67.0696 49.6582 66.1326 50.3886 65.3746 51.2774 64.7959 52.1662 64.2171 52.9517 63.9277 53.6339 63.9277 54.4951 63.9277 55.098 64.3239 55.4425 65.1163L57.5509 63.9484 58.1297 63.9484 57.2202 66.9766C56.7517 68.4993 56.5174 69.5432 56.5174 70.1082 56.5174 70.7008 56.7275 70.997 57.1478 70.997 57.4166 70.997 57.7128 70.8558 58.0367 70.5733 58.3605 70.2839 58.8153 69.8464 59.4009 69.2607ZM51.8355 71.0177C52.5245 71.0177 53.1722 70.432 53.7785 69.2607 54.3918 68.0825 54.6984 66.9973 54.6984 66.0051 54.6984 65.6192 54.6123 65.3195 54.44 65.1059 54.2677 64.8854 54.0369 64.7752 53.7475 64.7752 53.0585 64.7752 52.404 65.3609 51.7838 66.5322 51.1706 67.7035 50.864 68.7818 50.864 69.7671 50.864 70.1392 50.9536 70.4424 51.1327 70.6766 51.3187 70.904 51.553 71.0177 51.8355 71.0177Z" id="path900" font-size="21.1667"/><path d="M70.439 70.4493C69.564 71.2968 68.1653 72.1649 66.2429 73.0538 65.6021 74.8728 64.8821 76.1578 64.0828 76.9088 63.2836 77.6667 62.4498 78.0457 61.5817 78.0457 61.1407 78.0457 60.7859 77.9113 60.5172 77.6426 60.2553 77.3739 60.1244 77.0156 60.1244 76.5677 60.1244 75.2104 61.3681 73.9805 63.8554 72.8781L64.4859 70.656C63.1837 72.1098 62.0399 72.8367 61.0546 72.8367 60.524 72.8367 60.0934 72.6197 59.7627 72.1856 59.4388 71.7515 59.2769 71.1727 59.2769 70.4493 59.2769 69.4088 59.5043 68.2926 59.959 67.1006L60.9512 64.4755 63.9588 63.9484 62.6669 67.0179C62.0743 68.4993 61.7781 69.6155 61.7781 70.3666 61.7781 70.9867 61.9882 71.2968 62.4085 71.2968 62.8357 71.2968 63.3215 70.9522 63.8658 70.2632 64.417 69.5742 64.8786 68.7267 65.2507 67.7207L66.4289 64.4755 69.2505 63.9484 66.5633 72.0306C68.1411 71.3071 69.4331 70.3838 70.439 69.2607ZM63.5557 73.9012C62.7082 74.2802 62.0537 74.704 61.592 75.1725 61.1373 75.6479 60.9099 76.113 60.9099 76.5677 60.9099 77.0294 61.1063 77.2602 61.499 77.2602 62.2638 77.2602 62.9494 76.1406 63.5557 73.9012Z" id="path902" font-size="21.1667"/></g></g><g id="layer10"><path d="M44.5034 9.04021 27.188 30.8885" id="path325" stroke="#FFFFFF" stroke-width="0.269257" fill="#800000"/><path d="M45.2182 9.57949 28.6246 31.898" id="path325-9" stroke="#FFFFFF" stroke-width="0.266406" fill="#800000"/><path d="M45.9269 10.1965 29.8996 32.9459" id="path325-9-1" stroke="#FFFFFF" stroke-width="0.264338" fill="#800000"/><path d="M43.7458 8.86755 46.4517 10.7612 46.5196 9.45235 45.0159 8.37865Z" id="path4875" stroke="#FFFFFF" stroke-width="0.264583" fill="#FFFFFF"/><path d="M28.8664 26.8019 33.9782 29.9639" id="path4877" stroke="#FFFFFF" stroke-width="0.278082" fill="none"/><path d="M33.4655 20.9229 38.0258 23.9602" id="path4877-3" stroke="#FFFFFF" stroke-width="0.257428" fill="none"/><path d="M38.4118 14.5971 42.5494 17.2861" id="path4877-3-5" stroke="#FFFFFF" stroke-width="0.230717" fill="none"/></g></svg>