<svg id="svg" version="1.1" xmlns="http://www.w3.org/2000/svg" xmlns:xlink="http://www.w3.org/1999/xlink" width="1920" height="526" viewBox="0, 0, 400,109"><g id="svgg"><path id="path0" d="M327.237 0.552 C 327.139 0.665,327.079 0.831,327.104 0.920 C 327.129 1.010,326.857 1.308,326.499 1.583 C 326.140 1.858,325.801 2.215,325.746 2.375 C 325.690 2.535,325.537 2.667,325.405 2.667 C 325.274 2.667,325.167 2.817,325.167 3.000 C 325.167 3.183,325.092 3.333,325.000 3.333 C 324.908 3.333,324.833 3.450,324.833 3.593 C 324.833 3.736,324.758 3.807,324.667 3.750 C 324.575 3.693,324.500 3.801,324.500 3.990 C 324.500 4.179,324.431 4.333,324.347 4.333 C 324.262 4.333,324.145 4.554,324.085 4.824 C 324.012 5.160,323.902 5.285,323.737 5.222 C 323.561 5.155,323.527 5.210,323.610 5.427 C 323.698 5.655,323.661 5.700,323.454 5.621 C 323.254 5.544,323.211 5.587,323.287 5.787 C 323.366 5.991,323.321 6.031,323.107 5.949 C 322.906 5.872,322.768 5.961,322.635 6.253 C 322.531 6.481,322.359 6.667,322.252 6.667 C 322.145 6.667,321.890 6.846,321.684 7.065 C 321.433 7.332,321.196 7.433,320.962 7.372 C 320.758 7.318,320.656 7.348,320.715 7.444 C 320.822 7.617,320.277 8.167,319.998 8.167 C 319.907 8.167,319.833 8.242,319.833 8.333 C 319.833 8.425,319.733 8.500,319.610 8.500 C 319.487 8.500,319.305 8.681,319.204 8.901 C 319.044 9.253,318.952 9.287,318.464 9.177 C 318.157 9.108,317.664 9.059,317.368 9.067 C 317.001 9.078,316.855 9.017,316.910 8.875 C 316.954 8.760,316.876 8.667,316.737 8.667 C 316.598 8.667,316.296 8.478,316.066 8.248 C 315.642 7.824,315.167 7.956,315.167 8.498 C 315.167 8.602,315.092 8.640,315.000 8.583 C 314.908 8.527,314.833 8.602,314.833 8.750 C 314.833 8.898,314.767 8.979,314.686 8.928 C 314.604 8.878,314.497 8.994,314.447 9.185 C 314.397 9.377,314.291 9.493,314.212 9.444 C 314.132 9.395,313.958 9.424,313.825 9.508 C 313.630 9.632,313.648 9.665,313.917 9.677 C 314.180 9.690,314.154 9.728,313.792 9.860 C 313.540 9.952,313.331 10.115,313.328 10.222 C 313.307 10.934,311.500 11.670,311.500 10.967 C 311.500 10.802,311.387 10.667,311.250 10.667 C 311.077 10.667,311.000 10.841,311.000 11.236 C 311.000 11.549,310.914 11.834,310.809 11.869 C 310.703 11.904,310.592 12.154,310.562 12.425 C 310.450 13.430,310.292 13.994,310.148 13.905 C 310.067 13.855,310.000 13.901,310.000 14.008 C 310.000 14.115,309.905 14.166,309.789 14.121 C 309.635 14.062,309.595 14.217,309.641 14.693 C 309.690 15.211,309.625 15.414,309.326 15.673 C 309.079 15.887,309.030 16.001,309.183 16.003 C 309.337 16.004,309.355 16.047,309.234 16.128 C 309.134 16.195,309.001 16.456,308.939 16.708 C 308.877 16.960,308.753 17.167,308.663 17.167 C 308.574 17.167,308.500 17.279,308.500 17.417 C 308.500 17.560,308.350 17.667,308.149 17.667 C 307.922 17.667,307.828 17.747,307.884 17.892 C 307.945 18.049,307.849 18.104,307.570 18.074 C 307.290 18.043,307.068 18.171,306.836 18.497 C 306.653 18.753,306.373 18.953,306.214 18.940 C 306.055 18.927,305.923 19.029,305.921 19.167 C 305.915 19.496,305.237 20.167,304.909 20.167 C 304.767 20.167,304.464 20.354,304.235 20.583 C 303.836 20.982,303.615 21.077,303.250 21.008 C 303.158 20.990,303.177 21.072,303.292 21.188 C 303.539 21.440,303.573 21.898,303.333 21.750 C 303.242 21.693,303.167 21.769,303.167 21.919 C 303.167 22.302,302.721 22.733,302.610 22.457 C 302.564 22.343,302.520 22.569,302.513 22.958 C 302.506 23.348,302.434 23.667,302.354 23.667 C 302.274 23.667,302.162 23.897,302.106 24.178 C 302.050 24.459,301.929 24.642,301.837 24.586 C 301.737 24.524,301.714 24.597,301.780 24.769 C 301.861 24.978,301.831 25.018,301.669 24.918 C 301.521 24.827,301.488 24.846,301.569 24.977 C 301.635 25.084,301.760 25.129,301.845 25.076 C 301.930 25.023,302.000 25.135,302.000 25.323 C 302.000 25.512,301.944 25.652,301.875 25.634 C 301.806 25.615,301.584 25.657,301.381 25.726 C 300.908 25.887,300.333 25.582,300.333 25.171 C 300.333 24.996,300.258 24.807,300.167 24.750 C 300.075 24.693,300.000 24.770,300.000 24.920 C 300.000 25.134,299.896 25.170,299.524 25.089 C 299.106 24.997,299.021 25.047,298.833 25.501 C 298.710 25.798,298.530 25.983,298.408 25.936 C 298.282 25.888,298.155 26.036,298.093 26.303 C 297.862 27.293,297.651 27.631,297.321 27.545 C 297.109 27.490,297.000 27.546,297.000 27.713 C 297.000 27.990,296.599 28.209,296.419 28.030 C 296.102 27.715,294.907 27.927,294.475 28.375 C 294.232 28.627,293.946 28.833,293.840 28.833 C 293.734 28.833,293.696 28.912,293.755 29.009 C 293.815 29.105,293.722 29.312,293.549 29.467 C 293.376 29.623,293.063 29.995,292.854 30.294 C 292.645 30.593,292.405 30.794,292.321 30.742 C 292.236 30.690,292.167 30.757,292.167 30.891 C 292.167 31.202,291.505 31.067,291.208 30.697 C 291.094 30.554,291.000 30.497,291.000 30.572 C 291.000 30.646,290.887 30.614,290.750 30.500 C 290.543 30.328,290.500 30.347,290.500 30.611 C 290.500 30.962,289.848 31.073,289.622 30.760 C 289.537 30.644,289.418 30.683,289.270 30.875 C 289.147 31.035,288.999 31.167,288.940 31.167 C 288.580 31.167,287.425 32.576,287.474 32.955 C 287.509 33.222,287.464 33.331,287.348 33.259 C 287.248 33.197,287.167 33.261,287.167 33.402 C 287.167 33.559,287.072 33.620,286.917 33.560 C 286.779 33.508,286.667 33.534,286.667 33.620 C 286.667 33.829,285.283 33.797,285.128 33.584 C 285.060 33.492,285.004 33.585,285.003 33.792 C 285.000 34.209,284.696 34.256,283.269 34.060 C 282.656 33.976,282.510 33.897,282.577 33.685 C 282.643 33.477,282.533 33.410,282.090 33.385 C 281.627 33.360,281.538 33.405,281.621 33.621 C 281.689 33.799,281.658 33.848,281.527 33.767 C 281.419 33.700,281.213 33.763,281.070 33.906 C 280.927 34.049,280.622 34.167,280.393 34.167 C 280.164 34.167,279.870 34.272,279.741 34.402 C 279.612 34.531,279.355 34.597,279.170 34.549 C 278.981 34.500,278.833 34.543,278.833 34.647 C 278.833 34.750,278.637 34.833,278.397 34.833 C 278.043 34.833,277.978 34.771,278.048 34.500 C 278.096 34.317,278.067 34.167,277.984 34.167 C 277.901 34.167,277.833 34.231,277.833 34.310 C 277.833 34.389,277.655 34.420,277.436 34.378 C 277.218 34.336,276.981 34.396,276.910 34.510 C 276.827 34.645,276.850 34.676,276.974 34.599 C 277.080 34.534,277.167 34.519,277.167 34.566 C 277.167 34.768,276.769 35.500,276.659 35.500 C 276.593 35.500,276.500 35.650,276.452 35.833 C 276.404 36.017,276.278 36.167,276.172 36.167 C 276.067 36.167,276.027 36.092,276.083 36.000 C 276.140 35.908,276.148 35.833,276.101 35.833 C 275.965 35.833,275.524 36.877,275.467 37.333 C 275.426 37.663,275.329 37.744,274.999 37.719 C 274.771 37.702,274.677 37.727,274.792 37.774 C 275.040 37.878,275.059 38.319,274.831 38.667 C 274.685 38.889,274.648 38.889,274.503 38.667 C 274.369 38.463,274.338 38.487,274.336 38.790 C 274.334 38.996,274.183 39.258,274.000 39.372 C 273.817 39.487,273.667 39.668,273.667 39.774 C 273.667 39.887,273.526 39.932,273.333 39.882 C 273.133 39.829,273.000 39.877,273.000 40.000 C 273.000 40.121,272.868 40.171,272.677 40.121 C 272.484 40.071,272.317 40.136,272.259 40.286 C 272.203 40.434,272.055 40.493,271.895 40.431 C 271.731 40.368,271.488 40.475,271.271 40.706 C 270.832 41.173,270.215 41.125,270.116 40.615 L 270.045 40.250 270.023 40.614 C 270.010 40.814,269.855 41.024,269.677 41.080 C 269.500 41.136,269.331 41.339,269.302 41.530 C 269.274 41.722,269.066 42.000,268.840 42.148 C 268.543 42.343,268.470 42.353,268.572 42.187 C 268.671 42.026,268.643 41.982,268.482 42.041 C 268.241 42.128,268.232 42.221,268.422 42.708 C 268.500 42.908,268.456 43.000,268.281 43.000 C 268.134 43.000,267.980 43.211,267.917 43.500 C 267.855 43.781,267.699 44.000,267.560 44.000 C 267.424 44.000,267.364 44.082,267.426 44.183 C 267.566 44.409,267.169 45.188,266.975 45.068 C 266.897 45.020,266.833 45.135,266.833 45.323 C 266.833 45.578,266.726 45.667,266.417 45.667 C 266.150 45.667,266.000 45.573,266.000 45.407 C 266.000 45.264,265.920 45.196,265.822 45.257 C 265.724 45.317,265.603 45.210,265.553 45.019 C 265.503 44.827,265.411 44.702,265.348 44.741 C 265.285 44.780,265.131 44.748,265.006 44.670 C 264.865 44.583,264.628 44.627,264.390 44.783 C 264.177 44.922,263.889 44.993,263.751 44.940 C 263.613 44.887,263.500 44.920,263.500 45.012 C 263.500 45.105,263.350 45.342,263.167 45.538 C 262.983 45.735,262.833 46.040,262.833 46.216 C 262.833 46.493,262.176 47.475,261.556 48.125 C 261.320 48.373,261.104 48.403,261.249 48.169 C 261.306 48.076,261.243 48.045,261.103 48.099 C 260.966 48.151,260.890 48.288,260.935 48.403 C 260.991 48.549,260.788 48.621,260.257 48.641 C 259.567 48.667,259.220 48.454,259.695 48.296 C 259.803 48.260,259.653 48.132,259.362 48.012 C 259.071 47.891,258.833 47.723,258.833 47.637 C 258.833 47.551,258.758 47.527,258.667 47.583 C 258.575 47.640,258.500 47.532,258.500 47.343 C 258.500 46.838,258.268 46.926,258.045 47.515 C 257.937 47.803,257.773 47.983,257.675 47.922 C 257.573 47.859,257.500 47.964,257.500 48.175 C 257.500 48.435,257.427 48.508,257.236 48.434 C 257.091 48.379,256.904 48.333,256.820 48.333 C 256.736 48.333,256.667 48.221,256.667 48.083 C 256.667 47.946,256.554 47.833,256.417 47.833 C 256.116 47.833,256.077 47.505,256.375 47.488 C 256.490 47.482,256.433 47.411,256.250 47.331 C 255.926 47.190,255.927 47.183,256.292 47.074 C 256.795 46.923,256.769 46.667,256.250 46.667 C 255.898 46.667,255.833 46.589,255.833 46.167 C 255.833 45.776,255.760 45.667,255.497 45.667 C 255.225 45.667,255.180 45.590,255.260 45.268 C 255.315 45.049,255.279 44.820,255.180 44.758 C 255.081 44.697,255.000 44.732,255.000 44.835 C 255.000 44.948,254.900 44.923,254.750 44.774 C 254.612 44.636,254.500 44.458,254.500 44.378 C 254.500 44.050,254.071 43.338,253.910 43.398 C 253.814 43.434,253.601 43.364,253.435 43.243 C 253.270 43.122,253.029 43.063,252.900 43.113 C 252.760 43.167,252.667 43.096,252.667 42.934 C 252.667 42.787,252.592 42.657,252.500 42.646 C 252.408 42.634,252.258 42.606,252.167 42.583 C 252.075 42.560,251.925 42.532,251.833 42.521 C 251.742 42.509,251.667 42.389,251.667 42.253 C 251.667 42.117,251.479 41.959,251.250 41.902 C 251.014 41.842,250.833 41.677,250.833 41.519 C 250.833 41.241,250.287 40.667,250.022 40.667 C 249.726 40.667,248.973 39.812,249.063 39.577 C 249.114 39.443,249.084 39.333,248.995 39.333 C 248.906 39.333,248.833 39.186,248.833 39.005 C 248.833 38.782,248.753 38.708,248.583 38.773 C 248.394 38.846,248.333 38.743,248.333 38.351 C 248.333 38.066,248.267 37.833,248.187 37.833 C 248.106 37.833,247.949 37.590,247.838 37.292 C 247.727 36.994,247.497 36.470,247.328 36.128 C 247.150 35.769,247.087 35.466,247.178 35.410 C 247.598 35.150,246.822 34.825,246.007 34.919 C 245.223 35.008,244.871 34.830,245.375 34.599 C 245.490 34.546,245.421 34.543,245.222 34.592 C 245.024 34.640,244.806 34.591,244.738 34.481 C 244.658 34.351,244.686 34.326,244.820 34.408 C 244.975 34.504,244.973 34.453,244.812 34.195 C 244.695 34.008,244.540 33.892,244.467 33.937 C 244.393 33.983,244.333 33.903,244.333 33.760 C 244.333 33.617,244.202 33.494,244.042 33.487 C 243.867 33.479,243.834 33.440,243.958 33.390 C 244.281 33.260,244.204 33.000,243.844 33.000 C 243.666 33.000,243.274 32.775,242.973 32.500 C 242.436 32.009,242.000 31.853,242.000 32.151 C 242.000 32.234,241.850 32.263,241.667 32.215 C 241.480 32.166,241.333 32.210,241.333 32.314 C 241.333 32.416,241.221 32.500,241.083 32.500 C 240.946 32.500,240.827 32.631,240.820 32.792 C 240.813 32.952,240.772 32.998,240.729 32.893 C 240.675 32.760,240.468 32.792,240.043 32.999 C 239.431 33.296,238.969 33.215,238.628 32.750 C 238.553 32.649,238.504 32.672,238.503 32.807 C 238.500 32.999,237.885 33.013,237.042 32.842 C 237.019 32.837,236.990 32.515,236.978 32.125 L 236.956 31.417 236.833 32.000 L 236.711 32.583 236.689 32.027 C 236.671 31.572,236.576 31.437,236.167 31.282 C 235.783 31.138,235.691 31.020,235.768 30.776 C 235.830 30.581,235.803 30.499,235.699 30.564 C 235.605 30.621,235.503 30.599,235.473 30.514 C 235.442 30.428,235.304 30.334,235.167 30.304 C 235.029 30.274,234.878 30.199,234.831 30.138 C 234.665 29.918,233.748 29.907,233.792 30.125 C 233.818 30.256,233.641 30.333,233.316 30.333 C 232.908 30.333,232.820 30.276,232.901 30.065 C 232.974 29.873,232.932 29.824,232.752 29.893 C 232.598 29.952,232.500 29.895,232.500 29.745 C 232.500 29.610,232.432 29.500,232.348 29.500 C 232.264 29.500,232.217 29.313,232.242 29.083 C 232.267 28.854,232.242 28.661,232.185 28.654 C 231.677 28.590,231.414 28.491,231.364 28.342 C 231.332 28.246,231.208 28.167,231.088 28.167 C 230.887 28.167,230.276 27.130,230.253 26.750 C 230.247 26.658,230.107 26.607,229.942 26.635 C 229.752 26.668,229.608 26.561,229.551 26.345 C 229.502 26.158,229.406 26.038,229.338 26.080 C 229.270 26.123,229.074 25.897,228.902 25.579 C 228.561 24.945,228.167 24.811,228.167 25.328 C 228.167 25.538,228.084 25.624,227.938 25.569 C 227.813 25.520,227.663 25.602,227.606 25.751 C 227.543 25.914,227.419 25.971,227.293 25.895 C 227.148 25.808,227.154 25.857,227.312 26.051 C 227.518 26.305,227.489 26.333,227.030 26.333 C 226.749 26.333,226.468 26.416,226.406 26.518 C 226.326 26.647,226.244 26.634,226.132 26.476 C 226.022 26.322,226.002 26.423,226.066 26.798 C 226.133 27.185,226.091 27.373,225.924 27.437 C 225.794 27.487,225.639 27.747,225.580 28.014 C 225.522 28.281,225.404 28.500,225.320 28.500 C 225.236 28.500,225.167 28.617,225.167 28.760 C 225.167 28.903,225.092 28.973,225.000 28.917 C 224.908 28.860,224.833 28.935,224.833 29.083 C 224.833 29.232,224.766 29.312,224.684 29.261 C 224.603 29.210,224.489 29.356,224.431 29.584 C 224.297 30.119,223.586 30.150,223.145 29.641 C 222.908 29.368,222.833 29.344,222.833 29.540 C 222.833 29.681,222.646 29.844,222.417 29.902 C 222.188 29.959,222.000 30.080,222.000 30.170 C 222.000 30.260,221.749 30.333,221.443 30.333 C 220.881 30.333,220.000 29.756,220.000 29.387 C 220.000 29.285,219.775 28.961,219.500 28.667 C 219.225 28.372,219.000 28.056,219.000 27.965 C 219.000 27.873,218.885 27.842,218.743 27.896 C 218.492 27.993,217.854 27.726,217.644 27.437 C 217.585 27.356,217.454 27.342,217.352 27.405 C 217.238 27.475,217.167 27.383,217.167 27.165 C 217.167 26.884,217.096 26.833,216.827 26.919 C 216.526 27.014,216.500 26.975,216.601 26.572 C 216.682 26.250,216.659 26.152,216.524 26.235 C 216.408 26.307,216.332 26.235,216.331 26.052 C 216.329 25.883,216.274 25.823,216.206 25.917 C 215.982 26.222,215.717 26.155,215.493 25.738 C 215.372 25.510,215.104 25.282,214.898 25.231 C 214.693 25.179,214.388 24.981,214.221 24.790 C 214.053 24.599,214.010 24.498,214.125 24.565 C 214.242 24.633,214.333 24.601,214.333 24.492 C 214.333 24.385,214.217 24.342,214.074 24.397 C 213.917 24.457,213.662 24.332,213.430 24.082 C 213.207 23.842,212.860 23.667,212.606 23.667 C 212.364 23.667,212.167 23.596,212.167 23.510 C 212.167 23.424,211.830 23.303,211.418 23.242 C 211.007 23.180,210.706 23.071,210.750 23.000 C 210.794 22.929,210.677 22.831,210.491 22.783 C 210.216 22.711,210.175 22.610,210.268 22.236 C 210.364 21.855,210.337 21.796,210.108 21.884 C 209.930 21.953,209.833 21.904,209.833 21.745 C 209.833 21.596,209.673 21.500,209.422 21.500 C 209.130 21.500,209.038 21.430,209.104 21.257 C 209.171 21.081,209.101 21.032,208.849 21.080 C 208.657 21.117,208.500 21.077,208.500 20.990 C 208.500 20.904,208.350 20.833,208.167 20.833 C 207.799 20.833,207.712 20.570,208.042 20.455 C 208.156 20.414,208.035 20.380,207.773 20.378 C 207.510 20.376,207.230 20.272,207.150 20.146 C 207.070 20.020,207.004 19.971,207.003 20.038 C 207.001 20.104,206.794 20.079,206.542 19.981 C 206.290 19.884,205.946 19.776,205.778 19.742 C 205.146 19.615,204.833 19.472,204.833 19.312 C 204.833 19.221,204.767 19.188,204.686 19.238 C 204.604 19.289,204.446 19.219,204.333 19.083 C 204.221 18.948,204.070 18.873,203.999 18.918 C 203.927 18.962,203.825 18.886,203.773 18.749 C 203.720 18.612,203.525 18.500,203.339 18.500 C 203.111 18.500,203.000 18.391,203.000 18.167 C 203.000 17.944,202.889 17.833,202.667 17.833 C 202.476 17.833,202.333 17.722,202.333 17.573 C 202.333 17.431,202.258 17.360,202.167 17.417 C 202.075 17.473,202.000 17.397,202.000 17.248 C 202.000 17.078,201.891 16.997,201.708 17.033 C 201.547 17.065,201.342 16.949,201.250 16.772 C 201.087 16.461,200.709 16.387,200.792 16.683 C 200.815 16.766,200.758 16.833,200.667 16.833 C 200.575 16.833,200.499 16.740,200.498 16.625 C 200.496 16.510,200.398 16.604,200.280 16.833 C 200.160 17.065,199.945 17.230,199.795 17.204 C 199.644 17.178,199.478 17.306,199.418 17.496 C 199.359 17.681,199.196 17.833,199.056 17.833 C 198.915 17.833,198.590 18.058,198.333 18.333 C 198.076 18.608,197.776 18.833,197.665 18.833 C 197.555 18.833,197.317 19.021,197.137 19.250 C 196.801 19.677,196.333 19.812,196.333 19.482 C 196.333 19.381,196.221 19.341,196.083 19.394 C 195.946 19.446,195.833 19.417,195.833 19.328 C 195.833 19.239,195.496 19.167,195.083 19.167 C 194.528 19.167,194.333 19.231,194.333 19.417 C 194.333 19.658,194.147 19.736,193.708 19.679 C 193.593 19.664,193.414 19.840,193.309 20.071 C 193.204 20.301,193.054 20.450,192.976 20.402 C 192.897 20.353,192.833 20.439,192.833 20.591 C 192.833 20.761,192.742 20.834,192.600 20.779 C 192.461 20.726,192.332 20.820,192.282 21.012 C 192.170 21.442,189.500 21.511,189.500 21.083 C 189.500 20.946,189.425 20.833,189.333 20.833 C 189.242 20.833,189.167 20.946,189.167 21.083 C 189.167 21.221,189.092 21.333,189.000 21.333 C 188.908 21.333,188.833 21.183,188.833 21.000 C 188.833 20.648,188.591 20.551,188.417 20.833 C 188.252 21.101,188.000 21.026,187.997 20.708 C 187.996 20.544,187.942 20.489,187.872 20.583 C 187.674 20.854,187.333 20.854,187.333 20.583 C 187.333 20.446,187.267 20.333,187.185 20.333 C 187.104 20.333,187.047 20.465,187.060 20.625 C 187.073 20.785,186.990 20.898,186.875 20.875 C 186.760 20.852,186.667 20.913,186.667 21.011 C 186.667 21.113,186.525 21.144,186.333 21.083 C 186.084 21.004,185.999 21.054,185.997 21.280 C 185.995 21.518,185.964 21.534,185.849 21.353 C 185.733 21.170,185.681 21.192,185.596 21.459 C 185.538 21.643,185.361 21.785,185.203 21.772 C 185.041 21.760,184.938 21.849,184.965 21.979 C 184.995 22.120,184.920 22.172,184.771 22.114 C 184.637 22.063,184.485 22.132,184.433 22.268 C 184.360 22.457,184.263 22.474,184.013 22.340 C 183.796 22.224,183.652 22.222,183.584 22.333 C 183.527 22.425,183.391 22.499,183.282 22.497 C 183.149 22.496,183.158 22.447,183.309 22.352 C 183.486 22.240,183.490 22.180,183.329 22.081 C 183.207 22.005,183.061 22.064,182.970 22.227 C 182.751 22.618,182.501 22.564,182.496 22.125 C 182.491 21.768,182.478 21.772,182.207 22.208 C 182.051 22.460,181.865 22.667,181.795 22.667 C 181.724 22.667,181.667 22.814,181.667 22.994 C 181.667 23.174,181.437 23.557,181.156 23.844 C 180.875 24.132,180.683 24.405,180.729 24.451 C 180.923 24.645,179.531 26.001,179.249 25.893 C 179.136 25.850,178.998 25.931,178.943 26.074 C 178.889 26.217,178.691 26.333,178.505 26.333 C 178.319 26.333,178.167 26.401,178.167 26.484 C 178.167 26.567,178.017 26.596,177.833 26.548 C 177.620 26.493,177.500 26.543,177.500 26.689 C 177.500 26.838,177.299 26.917,176.917 26.917 C 176.596 26.917,176.333 26.865,176.333 26.802 C 176.333 26.739,176.183 26.699,176.000 26.712 C 175.800 26.728,175.667 26.857,175.667 27.035 C 175.667 27.357,175.090 27.459,174.943 27.162 C 174.896 27.069,174.876 27.083,174.898 27.194 C 174.942 27.417,174.715 27.711,173.805 28.608 C 173.424 28.985,173.231 29.307,173.292 29.466 C 173.356 29.633,173.323 29.680,173.195 29.601 C 173.078 29.529,173.000 29.584,173.000 29.740 C 173.000 29.883,172.925 30.000,172.833 30.000 C 172.742 30.000,172.667 30.131,172.667 30.292 C 172.667 30.514,172.528 30.583,172.083 30.583 C 171.762 30.583,171.500 30.502,171.500 30.402 C 171.500 29.987,170.129 29.657,169.906 30.018 C 169.826 30.146,169.748 30.134,169.648 29.976 C 169.533 29.793,169.505 29.792,169.503 29.970 C 169.499 30.271,169.070 30.678,168.910 30.534 C 168.838 30.469,168.834 30.511,168.901 30.627 C 169.033 30.856,168.444 31.722,168.272 31.550 C 168.214 31.492,168.167 31.569,168.167 31.722 C 168.167 32.202,167.546 32.684,167.079 32.567 C 166.835 32.506,166.554 32.552,166.402 32.679 C 166.248 32.807,166.095 32.832,166.029 32.739 C 165.967 32.654,165.823 32.576,165.708 32.567 C 165.594 32.557,165.313 32.539,165.083 32.525 C 164.809 32.509,164.665 32.400,164.661 32.208 C 164.656 31.941,164.637 31.942,164.418 32.231 C 164.160 32.571,164.213 32.585,162.433 31.732 C 162.167 31.604,161.810 31.500,161.641 31.500 C 161.472 31.500,161.333 31.425,161.333 31.333 C 161.333 31.242,161.221 31.167,161.083 31.167 C 160.946 31.167,160.833 31.084,160.833 30.982 C 160.833 30.881,160.712 30.844,160.565 30.901 C 160.367 30.977,160.323 30.933,160.400 30.733 C 160.485 30.511,160.413 30.475,160.002 30.535 C 159.650 30.587,159.500 30.540,159.500 30.378 C 159.500 30.251,159.425 30.193,159.333 30.250 C 159.242 30.307,159.167 30.274,159.167 30.177 C 159.167 30.079,159.017 30.000,158.833 30.000 C 158.648 30.000,158.500 29.889,158.500 29.750 C 158.500 29.444,157.252 29.394,157.067 29.692 C 156.987 29.822,157.025 29.840,157.183 29.747 C 157.311 29.671,157.272 29.774,157.096 29.975 C 156.905 30.192,156.732 30.272,156.669 30.171 C 156.602 30.062,156.446 30.096,156.240 30.262 C 156.062 30.407,156.010 30.477,156.125 30.419 C 156.240 30.361,156.333 30.402,156.333 30.511 C 156.333 30.641,156.165 30.675,155.841 30.610 C 155.462 30.534,155.369 30.565,155.437 30.743 C 155.501 30.911,155.430 30.950,155.180 30.885 C 154.982 30.833,154.833 30.874,154.833 30.981 C 154.833 31.083,154.646 31.167,154.417 31.167 C 154.188 31.167,154.000 31.242,154.000 31.333 C 154.000 31.425,153.887 31.500,153.750 31.500 C 153.612 31.500,153.500 31.617,153.500 31.760 C 153.500 31.903,153.427 31.975,153.338 31.920 C 153.249 31.865,152.999 31.935,152.783 32.077 C 152.567 32.219,152.340 32.284,152.278 32.223 C 152.217 32.161,152.167 32.199,152.167 32.306 C 152.167 32.412,152.012 32.500,151.823 32.500 C 151.635 32.500,151.527 32.425,151.583 32.333 C 151.640 32.242,151.569 32.167,151.427 32.167 C 151.284 32.167,151.166 32.260,151.164 32.375 C 151.162 32.516,151.105 32.503,150.987 32.333 C 150.850 32.138,150.834 32.165,150.917 32.458 C 150.987 32.708,150.949 32.838,150.803 32.846 C 150.365 32.872,149.967 32.978,149.860 33.097 C 149.799 33.165,149.881 33.173,150.042 33.115 C 150.202 33.058,150.333 33.090,150.333 33.188 C 150.333 33.304,150.049 33.326,149.501 33.250 C 148.812 33.155,148.650 33.183,148.563 33.411 C 148.504 33.562,148.354 33.646,148.228 33.598 C 148.103 33.550,148.000 33.581,148.000 33.667 C 148.000 33.753,147.875 33.775,147.723 33.716 C 147.521 33.639,147.483 33.670,147.582 33.831 C 147.683 33.995,147.632 34.030,147.388 33.966 C 147.206 33.918,146.924 33.976,146.762 34.095 C 146.600 34.213,146.381 34.290,146.275 34.266 C 146.170 34.241,146.135 34.251,146.199 34.288 C 146.388 34.397,146.150 34.833,145.901 34.833 C 145.687 34.833,145.288 35.107,144.732 35.636 C 144.602 35.760,144.355 35.810,144.167 35.750 C 143.968 35.687,143.833 35.720,143.833 35.832 C 143.833 35.935,143.770 35.980,143.692 35.932 C 143.614 35.884,143.407 35.978,143.232 36.142 C 143.023 36.337,142.729 36.417,142.373 36.376 C 141.969 36.330,141.833 36.380,141.833 36.574 C 141.833 36.722,141.690 36.833,141.500 36.833 C 141.317 36.833,141.167 36.913,141.167 37.010 C 141.167 37.107,141.092 37.140,141.000 37.083 C 140.908 37.027,140.833 37.090,140.833 37.225 C 140.833 37.387,140.721 37.440,140.500 37.382 C 140.275 37.323,140.167 37.377,140.167 37.546 C 140.167 37.801,139.833 38.000,139.403 38.000 C 139.273 38.000,139.167 37.887,139.167 37.750 C 139.167 37.612,139.085 37.500,138.986 37.500 C 138.887 37.500,138.838 37.594,138.877 37.708 C 138.960 37.948,138.254 38.667,137.936 38.667 C 137.819 38.667,137.626 38.848,137.507 39.070 C 137.384 39.300,137.194 39.436,137.064 39.386 C 136.939 39.338,136.790 39.419,136.734 39.566 C 136.677 39.713,136.527 39.833,136.399 39.833 C 136.271 39.833,136.167 39.913,136.167 40.010 C 136.167 40.107,136.091 40.140,135.999 40.083 C 135.907 40.026,135.786 40.096,135.731 40.238 C 135.677 40.381,135.565 40.457,135.483 40.406 C 135.400 40.355,135.333 40.435,135.333 40.583 C 135.333 40.732,135.264 40.810,135.180 40.758 C 135.096 40.706,134.917 40.773,134.783 40.907 C 134.649 41.041,134.493 41.104,134.437 41.048 C 134.380 40.991,134.331 41.088,134.328 41.264 C 134.323 41.577,134.318 41.577,134.078 41.260 C 133.943 41.082,133.824 41.026,133.812 41.135 C 133.801 41.244,133.782 41.427,133.771 41.542 C 133.759 41.656,133.544 41.774,133.292 41.803 C 133.040 41.832,132.833 41.930,132.833 42.021 C 132.833 42.112,132.758 42.140,132.667 42.083 C 132.575 42.027,132.500 42.097,132.500 42.240 C 132.500 42.383,132.383 42.500,132.240 42.500 C 132.097 42.500,132.025 42.573,132.080 42.662 C 132.230 42.904,130.616 42.706,130.416 42.458 C 130.143 42.118,129.766 42.065,128.424 42.175 C 128.198 42.193,128.030 42.291,128.049 42.392 C 128.068 42.493,127.919 42.601,127.718 42.631 C 127.462 42.671,127.378 42.772,127.439 42.969 C 127.519 43.223,127.504 43.222,127.287 42.958 C 126.989 42.597,126.764 42.578,126.897 42.925 C 126.958 43.084,126.927 43.142,126.818 43.074 C 126.720 43.013,126.529 43.122,126.394 43.315 C 126.259 43.509,126.058 43.666,125.949 43.664 C 125.826 43.663,125.845 43.594,126.000 43.485 C 126.222 43.328,126.222 43.316,126.000 43.380 C 125.862 43.419,125.772 43.575,125.799 43.726 C 125.843 43.970,125.658 44.078,125.292 44.020 C 125.223 44.009,125.167 44.143,125.167 44.318 C 125.167 44.538,125.077 44.612,124.875 44.560 C 124.674 44.508,124.517 44.636,124.370 44.973 C 124.227 45.299,123.997 45.492,123.675 45.557 C 123.297 45.632,123.213 45.723,123.280 45.982 C 123.350 46.249,123.301 46.294,123.016 46.219 C 122.824 46.169,122.667 46.204,122.667 46.298 C 122.667 46.600,121.608 47.174,121.465 46.949 C 121.389 46.830,121.337 46.927,121.336 47.193 C 121.334 47.553,121.271 47.619,121.000 47.548 C 120.811 47.499,120.667 47.543,120.667 47.651 C 120.667 47.755,120.485 47.923,120.263 48.024 C 120.000 48.144,119.894 48.297,119.958 48.465 C 120.023 48.633,119.990 48.680,119.862 48.601 C 119.743 48.528,119.667 48.587,119.667 48.750 C 119.667 48.898,119.592 48.973,119.500 48.917 C 119.408 48.860,119.333 48.898,119.333 49.000 C 119.333 49.102,119.258 49.140,119.167 49.083 C 119.075 49.027,119.000 49.135,119.000 49.323 C 119.000 49.512,118.922 49.667,118.826 49.667 C 118.731 49.667,118.495 49.814,118.301 49.994 C 118.108 50.174,117.886 50.282,117.808 50.234 C 117.730 50.186,117.667 50.226,117.667 50.323 C 117.667 50.421,117.554 50.500,117.417 50.500 C 117.279 50.500,117.167 50.580,117.167 50.679 C 117.167 50.880,116.754 51.333,116.570 51.333 C 116.503 51.333,116.160 51.646,115.808 52.028 C 115.455 52.410,115.167 52.626,115.167 52.509 C 115.167 52.392,115.035 52.459,114.875 52.657 C 114.624 52.966,114.344 53.096,113.797 53.154 C 113.731 53.161,113.718 53.273,113.768 53.404 C 113.820 53.540,113.711 53.720,113.513 53.826 C 113.322 53.928,113.167 54.126,113.167 54.266 C 113.167 54.405,113.095 54.475,113.008 54.421 C 112.806 54.297,112.167 54.835,112.167 55.130 C 112.167 55.253,112.096 55.309,112.010 55.256 C 111.923 55.203,111.621 55.386,111.337 55.663 C 111.054 55.940,110.741 56.167,110.642 56.167 C 110.543 56.167,110.204 56.461,109.889 56.820 C 109.474 57.293,109.137 57.504,108.665 57.584 C 108.231 57.657,107.980 57.800,107.912 58.013 C 107.857 58.189,107.743 58.333,107.661 58.333 C 107.578 58.333,107.554 58.446,107.606 58.583 C 107.659 58.721,107.619 58.833,107.518 58.833 C 107.416 58.833,107.333 58.758,107.333 58.667 C 107.333 58.575,107.250 58.500,107.149 58.500 C 107.047 58.500,107.004 58.603,107.052 58.728 C 107.155 58.996,105.889 60.221,105.657 60.077 C 105.571 60.024,105.500 60.070,105.500 60.179 C 105.500 60.396,104.868 61.000,104.641 61.000 C 104.564 61.000,104.500 61.117,104.500 61.260 C 104.500 61.403,104.425 61.473,104.333 61.417 C 104.242 61.360,104.167 61.424,104.167 61.558 C 104.167 61.720,104.055 61.773,103.833 61.715 C 103.609 61.656,103.500 61.710,103.500 61.879 C 103.500 62.017,103.406 62.126,103.292 62.122 C 102.784 62.103,102.500 62.179,102.500 62.333 C 102.500 62.425,102.663 62.500,102.861 62.500 C 103.060 62.500,103.175 62.547,103.118 62.604 C 103.061 62.661,102.443 62.697,101.745 62.684 L 100.476 62.659 100.502 63.621 C 100.543 65.159,100.517 65.333,100.250 65.333 C 100.112 65.333,100.000 65.258,100.000 65.167 C 100.000 65.075,99.850 65.000,99.667 65.000 C 99.476 65.000,99.333 64.889,99.333 64.740 C 99.333 64.597,99.258 64.527,99.167 64.583 C 99.075 64.640,99.000 64.594,99.000 64.482 C 99.000 64.370,98.953 64.325,98.895 64.383 C 98.734 64.544,98.167 64.186,98.167 63.924 C 98.167 63.797,97.941 63.644,97.665 63.583 C 97.389 63.522,97.203 63.409,97.251 63.332 C 97.299 63.254,97.187 63.143,97.002 63.084 C 96.818 63.025,96.667 62.900,96.667 62.804 C 96.667 62.709,96.560 62.672,96.430 62.722 C 96.301 62.771,96.153 62.705,96.102 62.573 C 95.977 62.247,95.000 62.252,95.000 62.578 C 95.000 62.727,94.902 62.785,94.750 62.727 C 94.592 62.666,94.500 62.729,94.500 62.899 C 94.500 63.058,94.361 63.167,94.157 63.167 C 93.956 63.167,93.859 63.240,93.924 63.345 C 93.984 63.443,93.876 63.564,93.683 63.614 C 93.491 63.664,93.333 63.814,93.333 63.946 C 93.333 64.078,93.267 64.145,93.186 64.095 C 93.104 64.045,92.999 64.153,92.951 64.336 C 92.893 64.558,92.776 64.634,92.597 64.565 C 92.402 64.491,92.357 64.534,92.431 64.727 C 92.579 65.113,92.130 65.475,91.350 65.600 C 90.730 65.699,90.667 65.676,90.667 65.355 C 90.667 65.151,90.561 65.000,90.417 65.000 C 90.278 65.000,90.167 65.148,90.167 65.333 C 90.167 65.832,89.381 65.795,89.284 65.292 C 89.213 64.921,89.212 64.922,89.189 65.312 C 89.170 65.645,89.127 65.675,88.915 65.498 C 88.701 65.321,88.669 65.349,88.706 65.686 C 88.731 65.914,88.668 66.068,88.559 66.047 C 88.447 66.026,88.402 66.144,88.450 66.328 C 88.517 66.582,88.464 66.626,88.183 66.553 C 87.931 66.487,87.833 66.539,87.833 66.740 C 87.833 66.894,87.764 66.977,87.680 66.925 C 87.596 66.873,87.475 67.068,87.411 67.359 C 87.260 68.048,86.628 68.667,86.076 68.667 C 85.824 68.667,85.503 68.827,85.324 69.042 C 85.094 69.318,85.007 69.351,84.994 69.167 C 84.982 68.996,84.931 69.023,84.833 69.250 C 84.714 69.528,84.688 69.536,84.678 69.297 C 84.671 69.113,84.577 69.045,84.417 69.106 C 84.258 69.167,84.167 69.104,84.167 68.934 C 84.167 68.787,84.092 68.667,84.000 68.667 C 83.908 68.667,83.833 68.779,83.833 68.917 C 83.833 69.249,83.056 69.246,82.722 68.913 C 82.480 68.671,81.333 68.610,81.333 68.839 C 81.333 68.896,81.108 68.909,80.833 68.869 C 80.458 68.814,80.333 68.861,80.333 69.059 C 80.333 69.214,80.239 69.287,80.105 69.235 C 79.979 69.187,79.834 69.258,79.782 69.394 C 79.725 69.543,79.557 69.607,79.361 69.555 C 79.181 69.508,78.858 69.569,78.642 69.690 C 78.113 69.987,77.703 70.002,77.597 69.727 C 77.386 69.176,76.500 69.464,76.500 70.083 C 76.500 70.404,76.421 70.667,76.323 70.667 C 76.226 70.667,76.201 70.580,76.266 70.474 C 76.334 70.364,76.312 70.327,76.215 70.387 C 76.121 70.445,76.081 70.681,76.125 70.913 C 76.172 71.159,76.129 71.333,76.019 71.333 C 75.917 71.333,75.833 71.478,75.833 71.655 C 75.833 71.832,75.725 72.085,75.592 72.218 C 75.459 72.351,75.302 72.651,75.243 72.885 C 75.176 73.154,75.052 73.279,74.908 73.224 C 74.765 73.169,74.641 73.295,74.573 73.567 C 74.513 73.804,74.403 73.959,74.327 73.913 C 74.251 73.866,74.165 74.035,74.136 74.289 C 74.101 74.597,74.000 74.732,73.833 74.694 C 73.696 74.664,73.639 74.694,73.707 74.762 C 73.868 74.923,73.508 75.358,73.313 75.238 C 73.146 75.134,72.667 75.555,72.667 75.806 C 72.667 75.895,72.517 75.930,72.333 75.882 C 72.103 75.821,72.000 75.877,72.000 76.060 C 72.000 76.276,71.920 76.295,71.572 76.163 C 71.293 76.056,71.038 76.057,70.836 76.165 C 70.616 76.283,70.502 76.271,70.441 76.124 C 70.389 75.996,70.314 76.053,70.247 76.271 C 70.187 76.466,69.960 76.721,69.742 76.838 C 69.523 76.955,69.391 77.126,69.448 77.218 C 69.507 77.313,69.468 77.333,69.358 77.265 C 69.118 77.117,68.794 77.430,68.371 78.219 C 68.193 78.552,67.999 78.777,67.940 78.718 C 67.881 78.659,67.833 78.811,67.833 79.056 C 67.833 79.300,67.758 79.500,67.667 79.500 C 67.575 79.500,67.500 79.650,67.500 79.833 C 67.500 80.019,67.389 80.167,67.250 80.167 C 67.023 80.167,66.907 80.657,66.986 81.283 C 66.999 81.393,66.743 81.533,66.417 81.594 C 65.772 81.715,65.001 81.097,65.000 80.458 C 65.000 80.298,64.925 80.167,64.833 80.167 C 64.742 80.167,64.667 80.279,64.667 80.417 C 64.667 80.556,64.519 80.667,64.333 80.667 C 64.138 80.667,64.000 80.778,64.000 80.934 C 64.000 81.104,63.908 81.167,63.750 81.106 C 63.606 81.051,63.500 81.103,63.500 81.230 C 63.500 81.350,63.331 81.530,63.125 81.630 C 62.919 81.729,62.844 81.816,62.958 81.822 C 63.073 81.828,63.167 81.895,63.167 81.971 C 63.167 82.047,62.928 82.074,62.636 82.031 C 62.110 81.954,61.333 81.344,61.333 81.008 C 61.333 80.912,61.221 80.833,61.083 80.833 C 60.946 80.833,60.833 80.758,60.833 80.667 C 60.833 80.575,60.646 80.500,60.417 80.500 C 60.045 80.500,59.919 80.344,59.980 79.958 C 59.991 79.890,59.850 79.833,59.667 79.833 C 59.483 79.833,59.352 79.740,59.375 79.625 C 59.399 79.503,59.286 79.439,59.102 79.471 C 58.859 79.513,58.808 79.449,58.875 79.190 C 58.951 78.901,58.911 78.875,58.585 78.999 C 58.324 79.099,58.098 79.066,57.854 78.895 C 57.659 78.759,57.498 78.708,57.495 78.782 C 57.492 78.856,57.397 78.795,57.284 78.647 C 57.171 78.498,56.824 78.321,56.513 78.253 C 55.910 78.120,55.110 77.453,55.302 77.243 C 55.365 77.174,55.257 77.157,55.061 77.205 C 54.659 77.303,54.085 76.767,54.271 76.466 C 54.340 76.355,54.309 76.329,54.192 76.401 C 54.077 76.472,54.000 76.411,54.000 76.250 C 54.000 76.102,53.925 76.027,53.833 76.083 C 53.742 76.140,53.667 76.098,53.667 75.990 C 53.667 75.876,53.527 75.831,53.333 75.882 C 53.079 75.948,52.973 75.868,52.894 75.552 C 52.826 75.283,52.746 75.206,52.667 75.334 C 52.588 75.460,52.467 75.329,52.332 74.974 C 52.160 74.523,52.105 74.478,52.042 74.738 C 51.906 75.298,51.167 75.801,51.167 75.333 C 51.167 75.242,51.092 75.167,51.000 75.167 C 50.908 75.167,50.833 75.429,50.833 75.750 C 50.833 76.300,50.724 76.409,50.231 76.351 C 50.120 76.338,50.078 76.498,50.126 76.750 C 50.186 77.067,50.147 77.149,49.968 77.080 C 49.836 77.029,49.592 77.139,49.426 77.324 C 49.259 77.508,49.063 77.622,48.990 77.577 C 48.917 77.532,48.809 77.647,48.750 77.833 C 48.691 78.019,48.578 78.131,48.498 78.082 C 48.419 78.033,48.283 78.120,48.196 78.275 C 48.040 78.554,47.167 78.714,47.167 78.464 C 47.167 78.392,47.017 78.333,46.833 78.333 C 46.648 78.333,46.500 78.222,46.500 78.083 C 46.500 77.946,46.425 77.833,46.333 77.833 C 46.242 77.833,46.167 77.945,46.167 78.082 C 46.167 78.274,46.031 78.310,45.583 78.239 C 45.044 78.153,45.000 78.179,45.000 78.573 C 45.000 78.832,44.906 79.000,44.762 79.000 C 44.631 79.000,44.379 79.185,44.201 79.411 C 44.023 79.637,43.830 79.775,43.772 79.717 C 43.714 79.659,43.667 79.725,43.667 79.863 C 43.667 80.461,42.186 81.293,42.161 80.708 C 42.159 80.640,41.969 80.447,41.741 80.281 C 41.467 80.082,41.342 80.052,41.372 80.194 C 41.396 80.312,41.248 80.434,41.042 80.466 C 40.748 80.511,40.662 80.439,40.647 80.137 C 40.634 79.878,40.604 79.842,40.555 80.027 C 40.474 80.331,40.000 80.588,40.000 80.328 C 40.000 80.239,39.855 80.167,39.679 80.167 C 39.502 80.167,39.243 80.053,39.104 79.913 C 38.804 79.613,37.833 79.643,37.833 79.952 C 37.833 80.070,37.701 80.167,37.540 80.167 C 37.379 80.167,37.153 80.317,37.039 80.500 C 36.924 80.683,36.719 80.833,36.582 80.833 C 36.445 80.833,36.333 80.913,36.333 81.010 C 36.333 81.107,36.253 81.137,36.156 81.076 C 36.058 81.016,35.886 81.092,35.775 81.244 C 35.482 81.645,34.167 81.803,34.167 81.439 C 34.167 80.845,33.358 81.117,33.239 81.750 C 33.179 82.071,33.054 82.333,32.962 82.333 C 32.870 82.333,32.834 82.483,32.882 82.667 C 32.930 82.850,32.906 83.000,32.830 83.000 C 32.754 83.000,32.657 83.131,32.615 83.292 C 32.542 83.569,32.538 83.569,32.519 83.292 C 32.509 83.131,32.417 83.000,32.315 83.000 C 32.203 83.000,32.170 83.159,32.232 83.404 C 32.309 83.711,32.232 83.889,31.916 84.138 C 31.684 84.320,31.538 84.571,31.587 84.700 C 31.646 84.854,31.475 85.013,31.088 85.165 C 30.765 85.292,30.500 85.457,30.500 85.531 C 30.500 85.606,30.350 85.667,30.167 85.667 C 29.983 85.667,29.833 85.747,29.833 85.845 C 29.833 85.945,29.692 85.978,29.510 85.920 C 29.288 85.849,29.131 85.922,29.008 86.152 C 28.901 86.351,28.727 86.449,28.581 86.393 C 28.445 86.340,28.333 86.378,28.333 86.477 C 28.333 86.576,28.228 86.616,28.100 86.567 C 27.972 86.518,27.818 86.557,27.757 86.655 C 27.592 86.922,27.167 86.870,27.167 86.583 C 27.167 86.446,27.092 86.333,27.000 86.333 C 26.908 86.333,26.833 86.448,26.833 86.589 C 26.833 86.729,26.726 86.885,26.594 86.936 C 26.462 86.986,26.393 87.127,26.439 87.249 C 26.487 87.374,26.374 87.517,26.179 87.580 C 25.989 87.640,25.833 87.764,25.833 87.854 C 25.833 87.945,25.758 87.973,25.667 87.917 C 25.575 87.860,25.500 87.931,25.500 88.073 C 25.500 88.216,25.426 88.333,25.337 88.333 C 25.247 88.333,25.127 88.518,25.070 88.744 C 25.013 88.970,24.824 89.200,24.650 89.255 C 24.476 89.310,24.287 89.543,24.230 89.771 C 24.169 90.012,24.037 90.153,23.915 90.106 C 23.783 90.055,23.732 90.129,23.777 90.304 C 23.886 90.719,23.044 90.733,22.912 90.319 C 22.858 90.147,22.726 90.024,22.619 90.045 C 22.512 90.066,22.399 89.915,22.367 89.708 C 22.303 89.285,21.714 89.182,21.566 89.568 C 21.516 89.698,21.294 89.849,21.071 89.905 C 20.849 89.961,20.667 90.117,20.667 90.252 C 20.667 90.387,20.517 90.591,20.333 90.705 C 20.150 90.820,20.000 91.082,20.000 91.289 C 20.000 91.495,19.850 91.758,19.667 91.872 C 19.483 91.987,19.333 92.217,19.333 92.383 C 19.333 92.550,19.258 92.640,19.167 92.583 C 19.075 92.527,19.000 92.602,19.000 92.750 C 19.000 92.898,18.925 92.973,18.833 92.917 C 18.678 92.821,18.603 93.021,18.645 93.417 C 18.654 93.508,18.438 93.577,18.163 93.569 C 17.607 93.552,17.264 93.340,17.764 93.322 C 18.069 93.310,18.068 93.304,17.750 93.176 C 17.372 93.023,17.033 93.232,16.825 93.744 C 16.697 94.061,16.687 94.062,16.677 93.766 C 16.668 93.479,16.634 93.487,16.315 93.849 C 16.122 94.070,15.897 94.231,15.815 94.208 C 15.734 94.185,15.685 94.257,15.708 94.367 C 15.731 94.478,15.663 94.572,15.558 94.576 C 15.452 94.580,15.146 94.779,14.878 95.017 C 14.610 95.256,14.247 95.543,14.071 95.655 C 13.759 95.853,13.759 95.856,14.083 95.762 C 14.394 95.673,14.397 95.682,14.125 95.893 C 13.965 96.018,13.833 96.171,13.833 96.232 C 13.833 96.432,12.703 97.481,12.600 97.378 C 12.545 97.323,12.500 97.369,12.500 97.480 C 12.500 97.743,11.733 98.510,11.601 98.379 C 11.545 98.323,11.500 98.407,11.500 98.565 C 11.500 98.724,11.425 98.807,11.333 98.750 C 11.242 98.693,11.167 98.764,11.167 98.907 C 11.167 99.050,11.107 99.148,11.033 99.125 C 10.960 99.102,10.652 99.364,10.350 99.708 C 10.047 100.051,9.721 100.283,9.624 100.224 C 9.528 100.164,9.496 100.192,9.554 100.285 C 9.681 100.491,9.224 100.918,8.706 101.076 C 8.498 101.139,8.368 101.255,8.417 101.333 C 8.465 101.412,8.358 101.523,8.178 101.580 C 7.998 101.637,7.882 101.774,7.920 101.884 C 8.041 102.230,7.379 102.870,7.018 102.756 C 6.750 102.671,6.711 102.715,6.788 103.012 C 6.868 103.318,6.829 103.355,6.525 103.258 C 6.246 103.169,6.190 103.201,6.269 103.406 C 6.324 103.549,6.294 103.667,6.203 103.667 C 6.111 103.667,5.988 103.857,5.930 104.090 C 5.871 104.323,5.751 104.469,5.662 104.414 C 5.573 104.359,5.500 104.393,5.500 104.490 C 5.500 104.587,5.390 104.667,5.256 104.667 C 5.122 104.667,4.930 104.819,4.831 105.005 C 4.731 105.191,4.579 105.299,4.492 105.245 C 4.405 105.191,4.333 105.268,4.333 105.417 C 4.333 105.575,4.255 105.638,4.145 105.570 C 4.032 105.500,3.987 105.544,4.032 105.680 C 4.145 106.017,3.374 106.716,3.000 106.618 C 2.777 106.560,2.572 106.702,2.301 107.100 C 2.090 107.410,1.856 107.665,1.782 107.666 C 1.708 107.666,1.693 107.742,1.750 107.833 C 1.807 107.925,1.774 108.000,1.677 108.000 C 1.579 108.000,1.500 108.125,1.500 108.278 C 1.500 108.431,1.453 108.508,1.395 108.450 C 1.337 108.392,1.084 108.565,0.833 108.833 C 0.582 109.102,0.330 109.274,0.272 109.216 C 0.214 109.158,0.167 109.199,0.167 109.306 C 0.167 109.454,47.877 109.500,200.083 109.500 L 400.000 109.500 400.000 79.000 C 400.000 58.778,399.944 48.500,399.833 48.500 C 399.742 48.500,399.667 48.346,399.667 48.157 C 399.667 47.968,399.592 47.860,399.500 47.917 C 399.408 47.973,399.333 47.898,399.333 47.750 C 399.333 47.602,399.258 47.527,399.167 47.583 C 399.075 47.640,399.000 47.532,399.000 47.343 C 399.000 47.154,398.895 47.000,398.766 47.000 C 398.623 47.000,398.562 47.116,398.609 47.298 C 398.665 47.512,398.521 47.674,398.097 47.877 C 397.680 48.075,397.537 48.235,397.608 48.420 C 397.692 48.640,397.582 48.675,396.936 48.633 C 396.366 48.596,396.186 48.524,396.250 48.356 C 396.308 48.206,396.252 48.162,396.081 48.228 C 395.850 48.317,395.167 47.819,395.167 47.561 C 395.167 47.503,395.010 47.320,394.818 47.153 C 394.615 46.977,394.521 46.767,394.594 46.650 C 394.669 46.528,394.648 46.492,394.542 46.558 C 394.438 46.622,394.207 46.285,393.981 45.740 C 393.686 45.027,393.529 44.830,393.305 44.889 C 393.144 44.931,392.922 44.857,392.813 44.725 C 392.703 44.593,392.517 44.522,392.400 44.567 C 392.277 44.614,392.158 44.494,392.116 44.282 L 392.045 43.917 392.023 44.292 C 392.010 44.498,391.930 44.667,391.845 44.667 C 391.759 44.667,391.641 44.818,391.583 45.002 C 391.524 45.187,391.406 45.295,391.321 45.243 C 391.236 45.190,391.167 45.264,391.167 45.407 C 391.167 45.573,391.016 45.667,390.750 45.667 C 390.440 45.667,390.333 45.578,390.333 45.323 C 390.333 45.135,390.258 45.027,390.167 45.083 C 390.075 45.140,390.000 45.069,390.000 44.927 C 390.000 44.784,389.925 44.667,389.833 44.667 C 389.742 44.667,389.667 44.517,389.667 44.333 C 389.667 44.150,389.592 44.000,389.500 44.000 C 389.408 44.000,389.333 43.887,389.333 43.750 C 389.333 43.612,389.258 43.500,389.167 43.500 C 389.075 43.500,389.000 43.387,389.000 43.250 C 389.000 43.112,388.917 43.000,388.816 43.000 C 388.714 43.000,388.673 42.890,388.725 42.755 C 388.777 42.621,388.746 42.466,388.657 42.410 C 388.568 42.355,388.532 42.249,388.579 42.174 C 388.625 42.099,388.570 42.048,388.457 42.060 C 388.343 42.073,388.237 42.020,388.222 41.943 C 388.206 41.866,387.962 41.597,387.680 41.345 C 387.398 41.093,387.167 40.762,387.167 40.610 C 387.167 40.458,387.092 40.333,387.000 40.333 C 386.908 40.333,386.833 40.475,386.833 40.647 C 386.833 40.821,386.684 41.000,386.500 41.048 C 386.137 41.143,386.038 40.920,386.375 40.765 C 386.490 40.713,386.414 40.712,386.208 40.763 C 385.957 40.825,385.798 40.770,385.732 40.596 C 385.663 40.416,385.508 40.367,385.233 40.436 C 384.940 40.509,384.833 40.467,384.833 40.278 C 384.833 40.110,384.718 40.041,384.504 40.083 C 384.322 40.118,384.130 40.076,384.077 39.990 C 384.024 39.904,383.835 39.833,383.657 39.833 C 383.479 39.833,383.352 39.740,383.375 39.625 C 383.398 39.510,383.321 39.436,383.204 39.460 C 383.086 39.484,382.948 39.282,382.892 39.001 C 382.798 38.533,382.500 38.286,382.500 38.677 C 382.500 38.774,382.418 38.802,382.317 38.740 C 382.217 38.678,382.167 38.408,382.206 38.140 C 382.259 37.783,382.218 37.675,382.056 37.738 C 381.902 37.797,381.833 37.673,381.833 37.336 C 381.833 37.049,381.714 36.780,381.542 36.680 C 381.381 36.587,381.309 36.508,381.381 36.505 C 381.453 36.502,381.426 36.340,381.321 36.144 C 381.169 35.860,381.101 35.835,380.985 36.019 C 380.869 36.201,380.838 36.187,380.836 35.951 C 380.834 35.786,380.646 35.464,380.417 35.235 C 380.188 35.006,380.000 34.700,380.000 34.556 C 380.000 34.379,379.895 34.322,379.675 34.380 C 379.496 34.426,379.314 34.379,379.271 34.274 C 379.228 34.169,379.187 34.252,379.180 34.458 C 379.166 34.853,378.333 35.039,378.333 34.647 C 378.333 34.543,378.186 34.500,378.000 34.548 C 377.817 34.596,377.667 34.563,377.667 34.475 C 377.667 34.386,377.592 34.360,377.500 34.417 C 377.408 34.473,377.333 34.440,377.333 34.343 C 377.333 34.246,377.108 34.167,376.833 34.167 C 376.469 34.167,376.333 34.087,376.331 33.875 C 376.329 33.648,376.297 33.633,376.185 33.809 C 376.083 33.970,376.008 33.981,375.926 33.848 C 375.862 33.745,375.728 33.712,375.627 33.775 C 375.515 33.844,375.479 33.796,375.534 33.652 C 375.600 33.481,375.471 33.408,375.062 33.385 C 374.753 33.367,374.500 33.428,374.500 33.520 C 374.500 33.611,374.574 33.641,374.665 33.585 C 374.759 33.526,374.787 33.593,374.730 33.741 C 374.676 33.884,374.620 34.003,374.607 34.007 C 373.628 34.276,372.166 34.159,372.164 33.811 C 372.163 33.589,372.108 33.496,372.039 33.598 C 371.904 33.797,370.863 33.813,370.557 33.620 C 370.450 33.554,370.244 33.545,370.098 33.601 C 369.928 33.666,369.833 33.612,369.833 33.448 C 369.833 33.309,369.759 33.169,369.668 33.139 C 369.577 33.108,369.486 32.882,369.466 32.637 C 369.446 32.392,369.374 32.225,369.306 32.267 C 369.239 32.308,369.092 32.172,368.981 31.963 C 368.561 31.177,367.333 30.309,367.333 30.798 C 367.333 30.870,367.183 30.929,367.000 30.929 C 366.791 30.929,366.667 30.817,366.667 30.631 C 366.667 30.467,366.592 30.333,366.500 30.333 C 366.408 30.333,366.333 30.413,366.333 30.510 C 366.333 30.607,366.264 30.643,366.179 30.591 C 366.094 30.538,365.982 30.627,365.931 30.789 C 365.824 31.127,365.000 31.203,365.000 30.875 C 365.000 30.760,364.912 30.685,364.805 30.708 C 364.698 30.731,364.523 30.582,364.415 30.376 C 364.308 30.170,364.183 30.039,364.138 30.084 C 364.029 30.193,363.167 29.222,363.167 28.992 C 363.167 28.894,363.082 28.866,362.978 28.930 C 362.864 29.000,362.820 28.956,362.867 28.816 C 362.950 28.565,362.630 28.167,362.345 28.167 C 362.247 28.167,362.167 28.110,362.166 28.042 C 362.166 27.812,360.834 27.808,360.828 28.038 C 360.825 28.154,360.665 28.063,360.472 27.833 L 360.122 27.417 360.236 27.833 C 360.340 28.217,360.333 28.224,360.148 27.917 C 360.037 27.733,359.846 27.523,359.723 27.450 C 359.600 27.377,359.500 27.204,359.500 27.065 C 359.500 26.927,359.423 26.861,359.329 26.919 C 359.235 26.977,359.078 26.794,358.979 26.513 C 358.881 26.231,358.742 26.000,358.671 26.000 C 358.599 26.000,358.446 25.771,358.330 25.492 C 358.146 25.048,358.060 24.997,357.643 25.089 C 357.276 25.169,357.167 25.133,357.167 24.930 C 357.167 24.503,356.935 24.634,356.667 25.212 C 356.491 25.590,356.318 25.737,356.083 25.707 C 355.900 25.684,355.619 25.649,355.458 25.630 C 355.108 25.589,355.071 25.239,355.404 25.111 C 355.712 24.993,355.548 24.333,355.211 24.333 C 355.043 24.333,354.990 24.224,355.048 24.000 C 355.113 23.753,355.053 23.667,354.818 23.667 C 354.420 23.667,354.407 23.359,354.792 23.060 C 355.045 22.863,355.047 22.845,354.807 22.928 C 354.622 22.992,354.494 22.909,354.420 22.679 C 354.360 22.489,354.241 22.333,354.155 22.333 C 354.070 22.333,354.000 22.183,354.000 22.000 C 354.000 21.817,353.906 21.685,353.792 21.708 C 353.677 21.731,353.604 21.623,353.630 21.467 C 353.656 21.311,353.525 21.103,353.339 21.003 C 353.152 20.903,353.000 20.707,353.000 20.568 C 353.000 20.428,352.925 20.360,352.833 20.417 C 352.742 20.473,352.667 20.440,352.667 20.343 C 352.667 20.246,352.471 20.167,352.232 20.167 C 351.817 20.167,351.244 19.642,350.970 19.011 C 350.903 18.856,350.852 18.835,350.845 18.958 C 350.826 19.301,350.531 19.194,350.406 18.799 C 350.267 18.361,350.069 18.162,349.458 17.847 C 349.206 17.717,348.993 17.492,348.983 17.347 C 348.974 17.202,348.907 17.271,348.833 17.500 L 348.700 17.917 348.683 17.448 C 348.674 17.178,348.595 17.024,348.498 17.085 C 348.404 17.142,348.284 16.962,348.227 16.678 C 348.171 16.397,348.055 16.167,347.969 16.167 C 347.884 16.167,347.856 16.098,347.908 16.013 C 347.960 15.929,347.890 15.747,347.752 15.609 C 347.613 15.470,347.500 15.296,347.499 15.220 C 347.496 14.820,347.129 13.837,347.010 13.911 C 346.933 13.958,346.823 13.754,346.764 13.457 C 346.706 13.160,346.629 12.767,346.593 12.583 C 346.557 12.400,346.516 12.063,346.501 11.833 C 346.483 11.565,346.439 11.505,346.376 11.665 C 346.314 11.824,346.206 11.675,346.074 11.248 C 345.961 10.882,345.860 10.707,345.851 10.858 C 345.810 11.503,344.409 11.326,344.111 10.638 C 343.965 10.302,343.693 9.978,343.506 9.919 C 343.319 9.859,343.167 9.752,343.167 9.681 C 343.167 9.454,342.554 8.835,342.441 8.947 C 342.382 9.007,342.333 8.926,342.333 8.768 C 342.333 8.610,342.258 8.527,342.167 8.583 C 342.075 8.640,342.000 8.569,342.000 8.427 C 342.000 8.284,341.921 8.167,341.823 8.167 C 341.726 8.167,341.693 8.092,341.750 8.000 C 341.954 7.670,341.506 7.842,341.098 8.250 C 340.869 8.479,340.561 8.667,340.414 8.667 C 340.267 8.667,340.193 8.742,340.250 8.833 C 340.307 8.925,340.180 9.006,339.968 9.013 C 339.590 9.025,339.356 9.060,338.475 9.232 C 338.110 9.303,338.014 9.247,337.930 8.909 C 337.873 8.684,337.716 8.500,337.580 8.500 C 337.444 8.500,337.333 8.421,337.333 8.323 C 337.333 8.226,337.272 8.185,337.196 8.232 C 337.037 8.330,336.500 7.750,336.500 7.479 C 336.500 7.373,336.349 7.334,336.145 7.387 C 335.783 7.482,335.333 7.176,335.333 6.835 C 335.333 6.732,335.258 6.693,335.167 6.750 C 335.075 6.807,334.999 6.717,334.997 6.552 C 334.995 6.315,334.964 6.299,334.849 6.480 C 334.734 6.661,334.679 6.635,334.590 6.355 C 334.488 6.033,334.306 5.925,333.958 5.980 C 333.890 5.991,333.833 5.883,333.833 5.740 C 333.833 5.597,333.758 5.527,333.667 5.583 C 333.575 5.640,333.500 5.565,333.500 5.417 C 333.500 5.268,333.431 5.190,333.347 5.242 C 333.263 5.294,333.144 5.111,333.084 4.835 C 333.023 4.559,332.867 4.333,332.737 4.333 C 332.607 4.333,332.500 4.235,332.500 4.115 C 332.500 3.995,332.368 3.751,332.207 3.573 C 332.045 3.395,331.729 2.898,331.504 2.468 C 331.279 2.038,330.961 1.652,330.797 1.609 C 330.634 1.566,330.500 1.404,330.500 1.248 C 330.500 1.061,330.412 0.998,330.243 1.063 C 330.093 1.121,329.998 1.076,330.013 0.956 C 330.096 0.309,329.742 0.115,329.295 0.563 C 329.169 0.689,328.849 0.792,328.583 0.792 C 328.318 0.792,327.998 0.689,327.872 0.563 C 327.594 0.285,327.472 0.283,327.237 0.552 M181.208 22.926 C 180.886 23.276,180.943 23.628,181.269 23.302 C 181.417 23.154,181.511 22.958,181.478 22.866 C 181.442 22.770,181.329 22.795,181.208 22.926 M237.205 32.365 C 237.241 32.473,237.360 32.592,237.469 32.629 C 237.591 32.669,237.628 32.593,237.566 32.431 C 237.449 32.128,237.105 32.065,237.205 32.365 M101.167 64.889 C 101.167 65.123,101.067 65.278,100.917 65.278 C 100.454 65.278,100.619 64.673,101.125 64.513 C 101.148 64.506,101.167 64.675,101.167 64.889 " stroke="none" fill="#bcdcdb" fill-rule="evenodd"></path><path id="path1" d="M329.500 0.167 C 329.500 0.258,329.387 0.333,329.250 0.333 C 329.112 0.333,329.000 0.407,329.000 0.496 C 329.000 0.596,329.163 0.585,329.417 0.470 C 329.833 0.280,329.982 0.000,329.667 0.000 C 329.575 0.000,329.500 0.075,329.500 0.167 M347.350 14.365 C 347.386 15.209,347.632 15.635,347.650 14.885 C 347.659 14.501,347.592 14.140,347.500 14.083 C 347.406 14.025,347.341 14.148,347.350 14.365 M308.730 16.571 C 308.580 16.895,308.588 16.956,308.772 16.885 C 308.897 16.837,309.000 16.656,309.000 16.482 C 309.000 16.071,308.955 16.086,308.730 16.571 M348.181 16.417 C 348.176 16.600,348.244 16.862,348.333 17.000 C 348.547 17.331,348.547 16.915,348.333 16.417 L 348.190 16.083 348.181 16.417 M173.084 28.999 C 173.028 29.090,173.052 29.289,173.137 29.441 C 173.263 29.666,173.292 29.635,173.292 29.275 C 173.292 28.800,173.245 28.738,173.084 28.999 M248.000 37.623 C 248.000 37.719,248.107 37.839,248.238 37.889 C 248.369 37.939,248.508 38.191,248.546 38.448 C 248.616 38.911,248.617 38.911,248.642 38.484 C 248.656 38.238,248.523 37.922,248.333 37.750 C 248.150 37.584,248.000 37.527,248.000 37.623 " stroke="none" fill="#c4e7e4" fill-rule="evenodd"></path><path id="path2" d="M310.271 12.756 C 310.213 12.905,310.175 13.227,310.186 13.472 C 310.200 13.805,310.238 13.749,310.335 13.250 C 310.473 12.542,310.443 12.308,310.271 12.756 M305.167 19.821 C 305.167 19.906,305.035 20.010,304.875 20.052 C 304.656 20.109,304.676 20.133,304.958 20.147 C 305.189 20.159,305.333 20.071,305.333 19.917 C 305.333 19.779,305.296 19.667,305.250 19.667 C 305.204 19.667,305.167 19.736,305.167 19.821 M192.851 20.176 C 192.632 20.359,192.500 20.556,192.559 20.614 C 192.617 20.672,192.815 20.547,192.999 20.335 C 193.518 19.736,193.458 19.671,192.851 20.176 M180.603 23.921 C 180.455 24.069,180.333 24.260,180.333 24.345 C 180.333 24.430,180.490 24.344,180.681 24.153 C 180.872 23.962,180.993 23.771,180.950 23.728 C 180.908 23.686,180.752 23.772,180.603 23.921 M297.893 26.067 C 297.906 26.288,297.973 26.433,298.042 26.391 C 298.218 26.282,298.198 25.667,298.018 25.667 C 297.936 25.667,297.879 25.847,297.893 26.067 M168.519 30.695 C 168.509 30.848,168.457 31.110,168.404 31.278 C 168.313 31.567,168.318 31.568,168.499 31.286 C 168.603 31.123,168.655 30.861,168.614 30.703 C 168.546 30.445,168.537 30.444,168.519 30.695 M285.500 33.583 C 285.500 33.721,285.575 33.833,285.667 33.833 C 285.758 33.833,285.833 33.721,285.833 33.583 C 285.833 33.446,285.758 33.333,285.667 33.333 C 285.575 33.333,285.500 33.446,285.500 33.583 M137.333 38.583 C 137.333 38.721,137.408 38.833,137.500 38.833 C 137.592 38.833,137.667 38.721,137.667 38.583 C 137.667 38.446,137.592 38.333,137.500 38.333 C 137.408 38.333,137.333 38.446,137.333 38.583 M389.268 43.417 C 389.405 44.029,389.501 44.163,389.497 43.736 C 389.496 43.560,389.419 43.304,389.326 43.167 C 389.202 42.984,389.187 43.052,389.268 43.417 M260.122 48.321 C 260.063 48.546,260.107 48.615,260.269 48.553 C 260.396 48.504,260.500 48.360,260.500 48.232 C 260.500 47.886,260.218 47.952,260.122 48.321 M396.667 48.306 C 396.667 48.474,396.769 48.611,396.894 48.611 C 397.032 48.611,397.090 48.491,397.041 48.306 C 396.997 48.137,396.895 48.000,396.814 48.000 C 396.733 48.000,396.667 48.137,396.667 48.306 M111.175 55.407 C 111.061 55.544,111.007 55.752,111.054 55.869 C 111.111 56.010,111.145 55.987,111.154 55.806 C 111.161 55.653,111.260 55.494,111.375 55.453 C 111.490 55.412,111.538 55.329,111.482 55.269 C 111.426 55.208,111.288 55.270,111.175 55.407 M99.500 64.417 C 99.500 64.554,99.575 64.667,99.667 64.667 C 99.758 64.667,99.833 64.554,99.833 64.417 C 99.833 64.279,99.758 64.167,99.667 64.167 C 99.575 64.167,99.500 64.279,99.500 64.417 M87.019 67.425 C 87.009 67.613,86.925 67.857,86.834 67.967 C 86.743 68.078,86.787 68.064,86.933 67.937 C 87.079 67.810,87.163 67.566,87.119 67.395 C 87.047 67.114,87.037 67.117,87.019 67.425 M68.897 76.961 C 68.795 77.028,68.655 77.271,68.585 77.500 C 68.443 77.969,68.480 77.943,68.888 77.292 C 69.192 76.805,69.193 76.766,68.897 76.961 M60.833 80.583 C 60.947 80.721,61.163 80.825,61.312 80.814 C 61.541 80.798,61.538 80.783,61.292 80.718 C 61.131 80.677,61.000 80.573,61.000 80.488 C 61.000 80.403,60.916 80.333,60.813 80.333 C 60.684 80.333,60.690 80.411,60.833 80.583 M65.500 81.097 C 65.729 81.364,65.935 81.615,65.958 81.653 C 65.981 81.691,65.998 81.616,65.995 81.486 C 65.992 81.356,65.786 81.106,65.536 80.930 L 65.083 80.610 65.500 81.097 M30.169 85.375 C 30.171 85.678,30.203 85.702,30.333 85.500 C 30.542 85.177,30.542 85.000,30.333 85.000 C 30.242 85.000,30.168 85.169,30.169 85.375 M24.444 89.114 C 24.184 89.415,24.009 89.757,24.056 89.873 C 24.109 90.007,24.145 89.982,24.154 89.806 C 24.161 89.653,24.364 89.384,24.606 89.208 C 24.848 89.031,25.017 88.815,24.981 88.726 C 24.946 88.637,24.704 88.812,24.444 89.114 " stroke="none" fill="#ccf4ed" fill-rule="evenodd"></path><path id="path3" d="" stroke="none" fill="#c9ecec" fill-rule="evenodd"></path><path id="path4" d="M332.167 3.398 C 332.167 3.433,332.279 3.677,332.416 3.939 C 332.662 4.411,332.777 4.148,332.566 3.597 C 332.478 3.370,332.167 3.214,332.167 3.398 M308.508 17.074 C 308.395 17.210,308.340 17.418,308.388 17.536 C 308.444 17.676,308.478 17.654,308.487 17.472 C 308.494 17.319,308.594 17.161,308.708 17.120 C 308.823 17.079,308.871 16.996,308.815 16.935 C 308.760 16.875,308.621 16.937,308.508 17.074 M301.883 24.105 C 301.941 24.163,301.919 24.339,301.835 24.497 C 301.745 24.665,301.742 24.982,301.828 25.266 L 301.975 25.750 301.959 25.167 C 301.951 24.846,302.002 24.452,302.073 24.292 C 302.159 24.099,302.130 24.000,301.990 24.000 C 301.873 24.000,301.825 24.047,301.883 24.105 M363.500 29.449 C 363.500 29.540,363.650 29.751,363.833 29.917 C 364.017 30.083,364.167 30.181,364.167 30.135 C 364.167 30.089,364.017 29.878,363.833 29.667 C 363.650 29.455,363.500 29.357,363.500 29.449 M223.246 29.770 C 223.394 29.918,223.557 29.998,223.608 29.948 C 223.756 29.799,223.502 29.500,223.228 29.500 C 223.011 29.500,223.013 29.537,223.246 29.770 M242.083 31.952 C 242.267 31.996,242.488 32.100,242.575 32.183 C 242.847 32.442,243.037 32.347,242.774 32.083 C 242.636 31.946,242.350 31.842,242.137 31.853 C 241.797 31.870,241.790 31.882,242.083 31.952 M275.320 37.208 C 275.271 37.566,275.296 37.771,275.380 37.687 C 275.460 37.606,275.499 37.325,275.466 37.062 C 275.411 36.621,275.400 36.633,275.320 37.208 M381.564 36.907 C 381.513 37.039,381.501 37.283,381.537 37.449 C 381.578 37.637,381.635 37.547,381.689 37.208 C 381.780 36.641,381.721 36.498,381.564 36.907 M249.000 39.621 C 249.000 39.703,249.101 39.907,249.224 40.076 C 249.434 40.363,249.446 40.358,249.419 39.992 C 249.393 39.633,249.000 39.285,249.000 39.621 M255.283 45.232 C 255.215 45.406,255.198 45.587,255.246 45.635 C 255.398 45.787,255.532 45.538,255.468 45.221 C 255.410 44.931,255.401 44.932,255.283 45.232 M394.005 45.760 C 394.002 45.857,394.110 46.082,394.245 46.260 C 394.379 46.438,394.492 46.504,394.495 46.407 C 394.498 46.310,394.390 46.085,394.255 45.907 C 394.121 45.729,394.008 45.663,394.005 45.760 M262.673 46.083 C 262.530 46.829,262.531 46.869,262.694 46.706 C 262.788 46.612,262.829 46.396,262.785 46.226 C 262.741 46.056,262.691 45.992,262.673 46.083 M257.875 47.542 C 257.696 48.031,257.700 48.052,257.922 47.760 C 258.134 47.480,258.259 47.000,258.120 47.000 C 258.094 47.000,257.984 47.244,257.875 47.542 M88.605 65.920 C 88.549 66.067,88.427 66.141,88.335 66.084 C 88.242 66.027,88.167 66.085,88.167 66.212 C 88.167 66.655,88.385 66.660,88.612 66.223 C 88.737 65.981,88.810 65.754,88.774 65.718 C 88.737 65.682,88.662 65.773,88.605 65.920 M76.372 70.167 C 76.372 70.487,76.406 70.619,76.448 70.458 C 76.490 70.298,76.490 70.035,76.448 69.875 C 76.406 69.715,76.372 69.846,76.372 70.167 M67.353 79.792 C 67.367 80.143,67.391 80.172,67.455 79.917 C 67.501 79.733,67.624 79.528,67.728 79.461 C 67.848 79.383,67.810 79.338,67.625 79.336 C 67.413 79.334,67.339 79.458,67.353 79.792 M9.583 100.294 C 9.492 100.362,9.306 100.567,9.172 100.750 C 8.991 100.996,9.045 100.978,9.380 100.679 C 9.788 100.316,9.912 100.162,9.792 100.169 C 9.769 100.171,9.675 100.227,9.583 100.294 " stroke="none" fill="#bce4de" fill-rule="evenodd"></path></g></svg>
