<svg width="56" height="57" viewBox="0 0 56 57" fill="none" xmlns="http://www.w3.org/2000/svg">
<path d="M18 56.6538H6C2.6875 56.6538 0 53.9663 0 50.6538V6.65381C0 3.34131 2.6875 0.653809 6 0.653809H18C21.3125 0.653809 24 3.34131 24 6.65381V50.6538C24 53.9663 21.3125 56.6538 18 56.6538ZM56 50.6538V6.65381C56 3.34131 53.3125 0.653809 50 0.653809H38C34.6875 0.653809 32 3.34131 32 6.65381V50.6538C32 53.9663 34.6875 56.6538 38 56.6538H50C53.3125 56.6538 56 53.9663 56 50.6538Z" fill="#2B2B2B"/>
</svg>
