<svg width="51" height="51" viewBox="0 0 51 51" fill="none" xmlns="http://www.w3.org/2000/svg">
<path d="M21.5156 0H29.4844C30.8092 0 31.875 1.06582 31.875 2.39062V19.125H40.6107C42.3838 19.125 43.2703 21.2666 42.0152 22.5217L26.8646 37.6822C26.1176 38.4293 24.8924 38.4293 24.1453 37.6822L8.9748 22.5217C7.71973 21.2666 8.60625 19.125 10.3793 19.125H19.125V2.39062C19.125 1.06582 20.1908 0 21.5156 0ZM51 37.4531V48.6094C51 49.9342 49.9342 51 48.6094 51H2.39062C1.06582 51 0 49.9342 0 48.6094V37.4531C0 36.1283 1.06582 35.0625 2.39062 35.0625H17.0033L21.8842 39.9434C23.8863 41.9455 27.1137 41.9455 29.1158 39.9434L33.9967 35.0625H48.6094C49.9342 35.0625 51 36.1283 51 37.4531ZM38.6484 46.2188C38.6484 45.123 37.752 44.2266 36.6562 44.2266C35.5605 44.2266 34.6641 45.123 34.6641 46.2188C34.6641 47.3145 35.5605 48.2109 36.6562 48.2109C37.752 48.2109 38.6484 47.3145 38.6484 46.2188ZM45.0234 46.2188C45.0234 45.123 44.127 44.2266 43.0312 44.2266C41.9355 44.2266 41.0391 45.123 41.0391 46.2188C41.0391 47.3145 41.9355 48.2109 43.0312 48.2109C44.127 48.2109 45.0234 47.3145 45.0234 46.2188Z" fill="white"/>
</svg>
